<?xml version="1.0" encoding="UTF-8" standalone="no"?>
<!DOCTYPE svg PUBLIC "-//W3C//DTD SVG 1.0//EN" "http://www.w3.org/TR/2001/REC-SVG-20010904/DTD/svg10.dtd">
<svg xmlns="http://www.w3.org/2000/svg" width="100%" height="100%">
<defs>
<font id="TSTARPRO-Regular" horiz-adv-x="427"><font-face font-family="TSTAR PRO" units-per-em="1000" panose-1="2 0 8 6 3 0 0 2 0 4" ascent="958" descent="-226" alphabetic="0"/>
<missing-glyph horiz-adv-x="1000"/>
<glyph unicode=" " glyph-name="space" horiz-adv-x="220"/>
<glyph unicode="!" glyph-name="exclam" horiz-adv-x="250" d="M83 0V83H166V0H83ZM98 207V711H153V207H98Z"/>
<glyph unicode="&quot;" glyph-name="quotedbl" horiz-adv-x="345" d="M83 565V712H137V565H83ZM207 565V712H261V565H207Z"/>
<glyph unicode="#" glyph-name="numbersign" horiz-adv-x="674" d="M83 238V284H188L214 446H116V491H221L253 690H303L271 491H433L466 690H515L481 491H590V446H475L448 284H557V238H441L407 21H359L392 238H230L195 21H146L181 238H83ZM237 284H399L425 446H264L237 284Z"/>
<glyph unicode="$" glyph-name="dollar" horiz-adv-x="521" d="M54 176H109Q109 115 150 80T255 44Q326 44 368 81T411 178Q411 259 333 303Q298 323 239 354T159 396Q117 419 92 458T66 547Q66 615 110 662T227 719V786H280V720Q358 712 406 662T455 538H400Q400 600 361 633T257 667Q198 667 160 635T121 544Q121 475 193 438Q309 379 358 352Q466 293 466 176Q466 102 413 51T280 -8V-71H227V-8Q148 0 101 51T54 176Z"/>
<glyph unicode="%" glyph-name="percent" horiz-adv-x="807" d="M83 474V581Q83 637 117 671T209 705Q267 705 301 672T336 581V474Q336 418 302 384T209 350T117 383T83 474ZM134 474Q134 401 209 401Q285 401 285 474V581Q285 654 209 654Q173 654 154 635T134 581V474ZM251 0L484 714H539L308 0H251ZM470 133V240Q470 296 504 330T596 364Q655 364 689 331T723 240V133Q723 77 689 43T596 9T504 42T470 133ZM521 133Q521 60 596 60Q672 60 672 133V240Q672 313 596 313Q560 313 541 294T521 240V133Z"/>
<glyph unicode="&amp;" glyph-name="ampersand" horiz-adv-x="644" d="M73 190Q73 306 180 369L210 386L171 420Q106 475 106 553Q106 597 123 630T169 683T227 711T289 720Q372 720 428 672T484 545H429Q429 600 390 633T289 666Q161 666 161 551Q161 514 173 495T217 448L561 158L528 115L484 152Q472 70 413 31T280 -9Q242 -9 207 1T141 34T92 97T73 190ZM128 189Q128 111 173 78T280 45T387 78T432 189V196L251 350Q217 331 206 325Q128 279 128 189Z"/>
<glyph unicode="'" glyph-name="quotesingle" horiz-adv-x="222" d="M83 566V712H138V566H83Z"/>
<glyph unicode="(" glyph-name="parenleft" horiz-adv-x="283" d="M83 78V628Q83 685 102 719Q119 749 164 793L199 754Q161 716 152 697Q138 670 138 622V84Q138 36 152 9Q161 -10 199 -48L164 -87Q119 -43 102 -13Q83 21 83 78Z"/>
<glyph unicode=")" glyph-name="parenright" horiz-adv-x="283" d="M83 -48Q119 -12 130 9Q144 39 144 84V622Q144 667 130 697Q119 718 83 754L118 793Q163 749 180 719Q199 685 199 628V78Q199 21 180 -13Q163 -43 118 -87L83 -48Z"/>
<glyph unicode="*" glyph-name="asterisk" horiz-adv-x="567" d="M135 478L245 538L135 598L157 635L264 571L261 697H305L301 571L410 635L431 598L321 538L431 478L410 440L301 505L305 379H261L264 505L157 440L135 478Z"/>
<glyph unicode="+" glyph-name="plus" horiz-adv-x="567" d="M77 259V309H257V483H308V309H488V259H308V72H257V259H77Z"/>
<glyph unicode="," glyph-name="comma" horiz-adv-x="281" d="M28 -126L107 87H197L73 -126H28Z"/>
<glyph unicode="-" glyph-name="hyphen" horiz-adv-x="454" d="M83 259V309H370V259H83Z"/>
<glyph unicode="." glyph-name="period" horiz-adv-x="250" d="M79 0V91H170V0H79Z"/>
<glyph unicode="/" glyph-name="slash" horiz-adv-x="494" d="M83 -54L354 771H408L139 -54H83Z"/>
<glyph unicode="0" glyph-name="zero" horiz-adv-x="517" d="M72 177V537Q72 563 80 591T106 650T164 700T259 720Q303 720 337 707T390 673T422 627T439 579T443 536V176Q443 149 435 121T408 61T350 11T255 -9Q201 -9 163 11T106 62T80 121T72 177ZM127 178Q127 138 140 110T176 68T218 50T259 45T299 50T340 68T375 109T388 178V534Q388 574 375 602T341 643T300 661T259 666T218 661T176 643T141 602T127 534V178Z"/>
<glyph unicode="1" glyph-name="one" horiz-adv-x="521" d="M82 0V54H232V656L123 648V700L287 713V54H441V0H82Z"/>
<glyph unicode="2" glyph-name="two" horiz-adv-x="517" d="M60 537Q60 617 116 668T261 720Q348 720 402 667T456 528Q456 443 388 383Q358 357 283 312T180 243Q147 216 132 190T116 123V54H455V0H61V129Q61 218 152 289Q182 312 252 354T350 419Q402 460 402 527Q402 593 365 629T261 666Q197 666 156 632T115 537H60Z"/>
<glyph unicode="3" glyph-name="three" horiz-adv-x="517" d="M62 177H117Q117 138 131 110T169 69T213 51T257 45T300 50T345 69T383 111T398 180V233Q398 265 388 290T362 328T326 349T289 359T256 362H225V413L383 659H93V713H438V651L283 411Q323 408 354 395T403 363T433 322T449 278T453 235V180Q453 153 444 124T414 63T353 11T258 -9Q203 -9 162 9T101 57T71 116T62 177Z"/>
<glyph unicode="4" glyph-name="four" horiz-adv-x="517" d="M69 207V275L231 713H285L120 261H392V535H447V0H392V207H69Z"/>
<glyph unicode="5" glyph-name="five" horiz-adv-x="517" d="M56 178H111Q111 117 150 81T257 45Q317 45 360 82T404 183V231Q404 290 366 331T259 372H87V438L107 712H421V658H157L141 426H261Q342 426 400 372T459 233V184Q459 101 400 46T257 -9Q173 -9 115 43T56 178Z"/>
<glyph unicode="6" glyph-name="six" horiz-adv-x="517" d="M62 172V535Q62 561 71 590T102 649T164 700T260 720Q303 720 336 707T389 674T422 629T439 581T444 537H389Q388 610 350 638T260 666Q237 666 216 661T170 643T132 602T117 533V383Q167 445 260 445Q314 445 354 426T414 377T444 317T453 259V174Q453 154 448 132T428 85T393 39T336 5T256 -9Q202 -9 162 10T101 59T72 117T62 172ZM117 177Q117 145 127 121T152 82T187 59T223 47T256 44Q277 44 298 49T343 67T383 108T398 177V258Q398 298 383 326T344 368T298 386T256 391Q240 391 224 389T187 377T153 354T128 315T117 258V177Z"/>
<glyph unicode="7" glyph-name="seven" horiz-adv-x="517" d="M52 659V713H464V651L222 0H163L410 659H52Z"/>
<glyph unicode="8" glyph-name="eight" horiz-adv-x="517" d="M54 193Q54 313 151 365Q106 393 85 440T63 530Q63 561 72 591T101 651T163 701T259 720Q313 720 353 701T415 652T445 591T455 530Q455 489 432 442T362 366Q462 309 462 193Q462 162 453 130T422 65T359 12T259 -9Q202 -9 160 11T96 64T64 129T54 193ZM111 193Q111 149 126 118T167 72T215 51T259 45Q280 45 302 51T349 71T391 116T407 193Q407 261 365 300T259 339Q194 339 153 300T111 193ZM118 530Q118 466 157 430T259 393T361 429T400 530Q400 570 385 599T346 641T301 660T259 666T218 661T172 642T133 599T118 530Z"/>
<glyph unicode="9" glyph-name="nine" horiz-adv-x="517" d="M62 452V537Q62 557 67 579T87 626T122 672T179 706T259 720Q313 720 353 701T414 652T443 594T453 539V176Q453 150 444 121T415 61T354 11T258 -9Q215 -9 181 4T127 37T94 82T76 130T71 174H126Q126 135 139 108T174 68T216 50T259 45Q276 45 293 47T329 59T363 82T388 120T398 178V328Q348 266 255 266Q201 266 161 286T101 337T71 397T62 452ZM117 453Q117 413 132 385T171 343T217 325T259 320Q275 320 291 322T328 334T362 357T387 396T398 453V534Q398 574 384 602T345 643T301 661T259 666T217 661T172 643T132 602T117 534V453Z"/>
<glyph unicode=":" glyph-name="colon" horiz-adv-x="250" d="M79 0V91H170V0H79ZM79 332V423H170V332H79Z"/>
<glyph unicode=";" glyph-name="semicolon" horiz-adv-x="248" d="M0 -126L79 87H169L45 -126H0ZM79 332V423H170V332H79Z"/>
<glyph unicode="&lt;" glyph-name="less" horiz-adv-x="505" d="M83 265L344 527H419L160 265L422 0H347L83 265Z"/>
<glyph unicode="=" glyph-name="equal" horiz-adv-x="596" d="M119 195V245H476V195H119ZM119 343V393H476V343H119Z"/>
<glyph unicode="&gt;" glyph-name="greater" horiz-adv-x="507" d="M83 0L345 265L86 527H161L423 265L158 0H83Z"/>
<glyph unicode="?" glyph-name="question" horiz-adv-x="449" d="M28 540Q28 567 38 595T68 653T130 701T225 720Q312 720 366 667T420 528Q420 467 377 417Q359 396 316 364T258 315Q229 284 229 225V200H174V222Q174 299 218 347Q237 368 278 398T335 446Q365 479 365 527Q365 595 329 631T225 668Q204 668 184 663T140 646T101 607T83 540H28ZM163 0V83H245V0H163Z"/>
<glyph unicode="@" glyph-name="at" horiz-adv-x="610" d="M109 -39V537Q109 557 114 579T134 626T169 672T226 706T306 720Q360 720 400 700T461 650T490 591T500 536V20H445V56Q409 18 359 20Q303 20 267 52T230 147V346Q230 408 268 441T362 474Q415 474 445 436V534Q445 574 431 602T392 643T348 661T306 666T264 661T218 642T179 601T164 532V-36Q164 -75 178 -103T216 -145T260 -164T303 -170V-225Q248 -225 208 -206T147 -156T118 -96T109 -39ZM280 152Q280 111 302 91T359 70Q396 70 420 90T445 151V345Q445 385 420 404T360 424Q325 424 303 404T280 342V152Z"/>
<glyph unicode="A" glyph-name="A" horiz-adv-x="542" d="M28 0L214 713H324L513 0H460L406 208H137L82 0H28ZM150 261H392L288 664H254L150 261Z"/>
<glyph unicode="B" glyph-name="B" horiz-adv-x="550" d="M83 0V713H289Q344 713 382 694T438 645T462 588T469 534V522Q469 480 450 436T381 368Q481 329 481 208V183Q481 157 473 129T447 70T389 20T294 0H83ZM138 55H292Q313 55 333 60T376 77T412 118T426 186V207Q426 247 414 275T382 317T341 335T297 341H138V55ZM138 395H293Q316 395 334 399T372 416T403 456T414 524V533Q414 659 287 659H138V395Z"/>
<glyph unicode="C" glyph-name="C" horiz-adv-x="523" d="M73 177V537Q73 557 78 579T98 626T133 672T190 706T270 720Q324 720 364 700T426 650T456 591T466 536H411Q411 576 396 603T357 643T312 661T270 666T228 661T183 644T143 603T128 535V177Q128 137 143 109T182 68T228 50T270 45T312 50T357 67T396 108T411 176H466Q466 150 457 121T427 62T365 11T269 -9Q215 -9 175 11T113 61T83 121T73 177Z"/>
<glyph unicode="D" glyph-name="D" horiz-adv-x="550" d="M83 0V714H289Q344 714 383 695T441 644T468 585T476 531V186Q476 159 469 131T443 71T386 20T293 0H83ZM138 54H291Q312 54 331 59T373 77T408 118T421 187V528Q421 568 408 596T372 637T330 655T289 660H138V54Z"/>
<glyph unicode="E" glyph-name="E" horiz-adv-x="511" d="M83 0V713H457V659H138V405H433V351H138V54H457V0H83Z"/>
<glyph unicode="F" glyph-name="F" horiz-adv-x="501" d="M83 0V713H457V659H138V404H433V350H138V0H83Z"/>
<glyph unicode="G" glyph-name="G" horiz-adv-x="540" d="M73 177V537Q73 557 78 579T98 626T133 672T190 706T270 720Q324 720 364 701T426 652T456 593T466 536H411Q411 576 396 603T357 643T312 660T270 665T228 661T183 644T143 603T128 535V177Q128 137 143 109T182 69T228 51T270 46T312 51T357 68T396 109T411 177V328H259V382H466V176Q466 150 457 121T426 62T364 11T268 -9Q214 -9 174 11T113 61T83 121T73 177Z"/>
<glyph unicode="H" glyph-name="H" horiz-adv-x="574" d="M83 0V713H138V402H435V713H490V0H435V348H138V0H83Z"/>
<glyph unicode="I" glyph-name="I" horiz-adv-x="222" d="M83 0V713H138V0H83Z"/>
<glyph unicode="J" glyph-name="J" horiz-adv-x="454" d="M23 173H78Q78 101 114 73T199 45Q249 45 284 72T320 169V659H100V713H375V175Q375 89 328 40T198 -9Q117 -9 70 41T23 173Z"/>
<glyph unicode="K" glyph-name="K" horiz-adv-x="512" d="M83 0V713H138V336L404 713H467L244 397L483 0H419L212 350L138 239V0H83Z"/>
<glyph unicode="L" glyph-name="L" horiz-adv-x="475" d="M83 0V713H138V54H456V0H83Z"/>
<glyph unicode="M" glyph-name="M" horiz-adv-x="665" d="M83 0V713H162L332 303L500 713H581V0H526V636L358 227H306L138 636V0H83Z"/>
<glyph unicode="N" glyph-name="N" horiz-adv-x="565" d="M83 0V713H157L426 77V713H481V0H404L138 628V0H83Z"/>
<glyph unicode="O" glyph-name="O" horiz-adv-x="540" d="M73 177V537Q73 557 78 579T98 626T133 672T190 706T270 720Q324 720 364 700T426 650T456 591T466 536V176Q466 150 457 121T427 62T365 11T269 -9Q215 -9 175 11T113 61T83 121T73 177ZM128 177Q128 137 143 109T182 68T228 50T270 45T312 50T357 68T396 109T411 177V535Q411 575 396 603T357 643T312 661T270 666T228 661T183 644T143 603T128 535V177Z"/>
<glyph unicode="P" glyph-name="P" horiz-adv-x="525" d="M83 0V713H289Q344 713 383 694T441 643T468 584T476 530V476Q476 455 472 433T456 385T424 338T371 305T293 291H138V0H83ZM138 345H289Q310 345 330 350T372 368T407 409T421 477V528Q421 568 408 596T371 636T328 654T287 659H138V345Z"/>
<glyph unicode="Q" glyph-name="Q" horiz-adv-x="540" d="M73 177V537Q73 557 78 579T98 626T133 672T190 706T270 720Q324 720 364 700T426 650T456 591T466 536V176Q466 151 458 124T431 68T378 17T294 -8V-110H244V-7Q197 -3 162 18T108 68T82 125T73 177ZM128 177Q128 112 162 83T244 47V188H294V46Q341 52 376 82T411 177V535Q411 575 396 603T357 643T312 661T270 666T228 661T183 644T143 603T128 535V177Z"/>
<glyph unicode="R" glyph-name="R" horiz-adv-x="543" d="M83 0V713H289Q344 713 383 694T441 644T468 585T476 531V496Q476 472 470 448T450 395T407 345T337 315L487 0H424L279 311H138V0H83ZM138 365H289Q310 365 330 370T372 388T407 429T421 497V528Q421 568 408 596T371 636T328 654T287 659H138V365Z"/>
<glyph unicode="S" glyph-name="S" horiz-adv-x="521" d="M54 176H109Q109 115 150 80T255 44Q326 44 368 81T411 178Q411 259 333 303Q298 323 239 354T159 396Q117 419 92 458T66 547Q66 623 119 672T257 721Q344 721 399 670T455 538H400Q400 599 361 633T257 667Q198 667 160 635T121 544Q121 475 193 438Q309 379 358 352Q466 293 466 176Q466 96 405 43T256 -10Q165 -10 110 43T54 176Z"/>
<glyph unicode="T" glyph-name="T" horiz-adv-x="474" d="M29 658V713H444V658H264V0H209V658H29Z"/>
<glyph unicode="U" glyph-name="U" horiz-adv-x="540" d="M73 177V713H128V177Q128 137 143 109T182 68T228 50T270 45T312 50T357 68T396 109T411 177V713H466V176Q466 148 457 119T428 60T367 10T271 -9Q215 -9 174 10T113 60T83 120T73 177Z"/>
<glyph unicode="V" glyph-name="V" horiz-adv-x="525" d="M29 713H82L246 52H280L442 713H495L318 0H208L29 713Z"/>
<glyph unicode="W" glyph-name="W" horiz-adv-x="796" d="M29 713H85L215 52L369 712H426L579 52L710 713H766L617 0H541L398 612L253 0H177L29 713Z"/>
<glyph unicode="X" glyph-name="X" horiz-adv-x="490" d="M29 0L214 359L30 713H91L243 408L397 713H458L274 359L460 0H397L244 307L92 0H29Z"/>
<glyph unicode="Y" glyph-name="Y" horiz-adv-x="491" d="M29 713H89L245 325L401 713H461L272 257V0H217V258L29 713Z"/>
<glyph unicode="Z" glyph-name="Z" horiz-adv-x="455" d="M33 0V56L346 659H47V713H404V660L91 54H421V0H33Z"/>
<glyph unicode="[" glyph-name="bracketleft" horiz-adv-x="306" d="M83 -85V776H222V727H133V-36H222V-85H83Z"/>
<glyph unicode="\" glyph-name="backslash" horiz-adv-x="490" d="M83 768H137L406 -57H353L83 768Z"/>
<glyph unicode="]" glyph-name="bracketright" horiz-adv-x="306" d="M83 -36H172V727H83V776H222V-85H83V-36Z"/>
<glyph unicode="^" glyph-name="asciicircum" horiz-adv-x="490" d="M83 436L219 689H272L406 436H351L245 634L139 436H83Z"/>
<glyph unicode="_" glyph-name="underscore" horiz-adv-x="530" d="M-1 -120H530V-165H-1V-120Z"/>
<glyph unicode="`" glyph-name="grave" horiz-adv-x="303" d="M83 741H147L219 594H170L83 741Z"/>
<glyph unicode="a" glyph-name="a" horiz-adv-x="524" d="M59 158Q59 226 105 264T223 302H389V366Q389 482 263 482Q207 482 171 456T135 373H80Q80 429 110 467T179 521T262 536Q338 536 391 496T444 369V0H389V63Q337 -9 231 -9Q160 -9 110 33T59 158ZM114 158Q114 45 243 45Q301 45 345 80T389 176V252H226Q114 252 114 158Z"/>
<glyph unicode="b" glyph-name="b" horiz-adv-x="537" d="M83 0V712H138V474Q190 536 273 536Q361 536 412 486T463 350V177Q463 92 411 41T273 -10Q181 -10 138 52V0H83ZM138 177Q138 152 143 131T163 89T205 56T273 44Q337 44 372 79T408 177V350Q408 405 378 443T273 482Q209 482 174 448T138 350V177Z"/>
<glyph unicode="c" glyph-name="c" horiz-adv-x="514" d="M73 177V350Q73 434 126 485T267 536Q352 536 403 489T459 361H405Q402 412 371 447T267 482Q202 482 165 448T128 350V177Q128 122 159 83T267 44Q327 44 363 75T404 162H459Q455 83 403 37T267 -10Q178 -10 126 40T73 177Z"/>
<glyph unicode="d" glyph-name="d" horiz-adv-x="538" d="M73 177V350Q73 436 124 486T263 536Q347 536 399 474V712H454V0H399V52Q356 -10 263 -10Q177 -10 125 41T73 177ZM128 177Q128 114 163 79T263 44Q303 44 331 56T373 88T393 130T399 177V350Q399 413 364 447T263 482Q188 482 158 444T128 350V177Z"/>
<glyph unicode="e" glyph-name="e" horiz-adv-x="529" d="M73 177V350Q73 434 126 485T267 536Q355 536 407 486T460 350V250H128V177Q128 122 159 83T267 44Q327 44 363 75T404 162H459Q455 83 403 37T267 -10Q178 -10 126 40T73 177ZM128 304H405V350Q405 405 374 443T267 482Q202 482 165 448T128 350V304Z"/>
<glyph unicode="f" glyph-name="f" horiz-adv-x="329" d="M24 472V526H119V569Q119 637 153 675T255 713H292V659H245Q217 659 196 641T174 581V526H304V472H174V0H119V472H24Z"/>
<glyph unicode="g" glyph-name="g" horiz-adv-x="537" d="M73 177V350Q73 435 125 485T264 536Q306 536 343 520T398 475V527H453V-46Q453 -144 400 -185T264 -226Q187 -226 136 -185T81 -72H136Q140 -120 174 -146T264 -172Q292 -172 312 -168T353 -152T386 -114T398 -46V52Q353 -10 264 -10T124 40T73 177ZM128 177Q128 152 134 131T154 89T196 56T264 44Q328 44 363 79T398 177V350Q398 406 369 444T264 482Q199 482 164 448T128 350V177Z"/>
<glyph unicode="h" glyph-name="h" horiz-adv-x="544" d="M83 0V712H138V464Q184 536 284 536Q371 536 417 487T464 350V0H409V350Q409 376 405 396T389 437T351 470T284 482Q222 482 180 446T138 352V0H83Z"/>
<glyph unicode="i" glyph-name="i" horiz-adv-x="239" d="M83 632V721H155V632H83ZM93 0V527H148V0H93Z"/>
<glyph unicode="j" glyph-name="j" horiz-adv-x="234" d="M3 -172H16Q86 -172 86 -100V527H141V-95Q141 -161 108 -193T21 -226H3V-172ZM78 632V721H150V632H78Z"/>
<glyph unicode="k" glyph-name="k" horiz-adv-x="499" d="M83 0V712H138V242L396 527H468L268 309L469 0H404L232 269L138 166V0H83Z"/>
<glyph unicode="l" glyph-name="l" horiz-adv-x="242" d="M79 131V713H134V126Q134 54 204 54H217V0H199Q146 0 113 32T79 131Z"/>
<glyph unicode="m" glyph-name="m" horiz-adv-x="762" d="M83 0V528H138V474Q181 536 272 536Q356 536 387 455Q435 536 541 536Q612 536 647 491T682 388V0H627V381Q627 425 606 453T536 482Q410 482 410 338V0H355V378Q355 421 333 451T265 482Q138 482 138 337V0H83Z"/>
<glyph unicode="n" glyph-name="n" horiz-adv-x="544" d="M83 0V526H138V464Q186 536 284 536Q371 536 417 487T464 350V0H409V350Q409 376 405 396T389 437T351 470T284 482Q222 482 180 446T138 352V0H83Z"/>
<glyph unicode="o" glyph-name="o" horiz-adv-x="534" d="M73 177V350Q73 434 126 485T267 536Q355 536 407 486T460 350V177Q460 92 407 41T267 -10Q178 -10 126 40T73 177ZM128 177Q128 122 159 83T267 44Q331 44 368 79T405 177V350Q405 405 374 443T267 482Q202 482 165 448T128 350V177Z"/>
<glyph unicode="p" glyph-name="p" horiz-adv-x="538" d="M83 -226V527H138V476Q181 536 273 536Q360 536 412 486T464 350V177Q464 90 413 40T273 -10Q180 -10 138 53V-226H83ZM138 177Q138 114 173 79T273 44Q313 44 341 56T383 88T403 130T409 177V350Q409 413 374 447T273 482Q198 482 168 444T138 350V177Z"/>
<glyph unicode="q" glyph-name="q" horiz-adv-x="537" d="M73 177V350Q73 435 125 485T264 536Q352 536 398 476V527H453V-226H398V53Q353 -10 264 -10T124 40T73 177ZM128 177Q128 152 134 131T154 89T196 56T264 44Q328 44 363 79T398 177V350Q398 406 369 444T264 482Q199 482 164 448T128 350V177Z"/>
<glyph unicode="r" glyph-name="r" horiz-adv-x="315" d="M83 0V526H138V461Q171 526 248 526H280V472H247Q205 472 172 439T138 338V0H83Z"/>
<glyph unicode="s" glyph-name="s" horiz-adv-x="494" d="M54 156H109Q109 103 145 75T245 46Q384 46 384 152Q384 207 313 228Q299 232 174 261Q126 272 94 306T62 387Q62 461 113 498T242 535Q327 535 379 492T432 373H377Q375 481 240 481Q117 481 117 387Q117 361 136 341T188 313Q326 282 331 280Q380 266 409 233T439 152Q439 70 385 31T245 -8T107 36T54 156Z"/>
<glyph unicode="t" glyph-name="t" horiz-adv-x="356" d="M24 472V526H129V712H184V526H304V472H184V126Q184 54 254 54H306V0H249Q196 0 163 32T129 131V472H24Z"/>
<glyph unicode="u" glyph-name="u" horiz-adv-x="546" d="M79 177V527H134V177Q134 122 164 84T270 45Q331 45 369 79T407 171V527H462V0H407V53Q360 -9 270 -9Q181 -9 130 41T79 177Z"/>
<glyph unicode="v" glyph-name="v" horiz-adv-x="461" d="M29 527H86L218 51H242L374 527H431L283 0H177L29 527Z"/>
<glyph unicode="w" glyph-name="w" horiz-adv-x="701" d="M44 527H100L206 53L322 527H378L495 53L600 527H656L533 0H460L350 450L240 0H168L44 527Z"/>
<glyph unicode="x" glyph-name="x" horiz-adv-x="440" d="M19 0L188 264L20 527H84L220 307L355 527H419L251 263L420 0H354L221 216L83 0H19Z"/>
<glyph unicode="y" glyph-name="y" horiz-adv-x="460" d="M24 527H81L211 51H239L363 527H420L252 -103Q231 -179 196 -202T94 -226H69V-172H107Q145 -172 165 -159T197 -106L227 0H172L24 527Z"/>
<glyph unicode="z" glyph-name="z" horiz-adv-x="450" d="M44 0V55L325 472H54V526H383V471L102 54H405V0H44Z"/>
<glyph unicode="{" glyph-name="braceleft" horiz-adv-x="304" d="M83 42V664Q83 725 109 751T197 777H220V728H202Q157 728 147 717Q133 703 133 652V50Q133 2 147 -11Q157 -22 202 -22H220V-71H197Q135 -71 109 -45T83 42Z"/>
<glyph unicode="|" glyph-name="bar" horiz-adv-x="218" d="M83 -58V770H133V-58H83Z"/>
<glyph unicode="}" glyph-name="braceright" horiz-adv-x="308" d="M83 -23H104H117Q150 -23 160 -13Q174 1 174 48V655Q174 702 160 716Q149 727 104 727H83V776H109Q170 776 198 750Q224 724 224 663V41Q224 -20 198 -46Q170 -72 109 -72H83V-23Z"/>
<glyph unicode="~" glyph-name="asciitilde" horiz-adv-x="536" d="M83 263Q117 297 139 308T191 320Q219 320 269 296T346 272Q365 272 379 279T418 310L452 283Q417 249 395 238T344 226Q319 226 267 250T188 274Q169 274 155 267T116 236L83 263Z"/>
<glyph unicode="¡" glyph-name="exclamdown" horiz-adv-x="250" d="M83 461V544H166V461H83ZM95 -167V337H150V-167H95Z"/>
<glyph unicode="¢" glyph-name="cent" horiz-adv-x="514" d="M73 177V350Q73 428 119 477T242 535V677H292V535Q367 528 411 482T459 361H405Q402 412 371 447T267 482Q202 482 165 448T128 350V177Q128 122 159 83T267 44Q327 44 363 75T404 162H459Q455 90 410 44T292 -9V-151H242V-9Q164 -2 119 47T73 177Z"/>
<glyph unicode="£" glyph-name="sterling" horiz-adv-x="517" d="M54 354V408H93V535Q93 616 142 667T275 718Q357 718 409 667T462 535H407Q407 574 394 601T358 641T316 659T274 664Q224 664 186 636T148 537V408H369V354H148V54H461V0H93V354H54Z"/>
<glyph unicode="¥" glyph-name="yen" horiz-adv-x="517" d="M44 713H102L258 325L414 713H472L305 306H428V256H285V158H428V108H285V0H230V108H89V158H230V255L229 256H89V306H209L44 713Z"/>
<glyph unicode="¦" glyph-name="brokenbar" horiz-adv-x="218" d="M81 -28V281H136V-28H81ZM81 432V740H136V432H81Z"/>
<glyph unicode="§" glyph-name="section" horiz-adv-x="559" d="M83 156H138Q138 103 174 75T274 46Q415 46 415 152Q415 214 348 230L189 265Q146 274 118 307T90 387Q90 447 127 486Q97 519 97 569Q97 643 148 680T277 717Q363 717 415 674T467 553H413Q413 606 378 634T275 663Q148 663 148 569Q148 542 165 523T212 496L367 462Q415 451 445 417T475 334Q475 271 441 231Q468 198 468 152Q468 70 414 31T274 -8T136 36T83 156ZM141 387Q141 360 158 341T205 314L360 280Q381 276 399 265Q422 291 422 334Q422 396 355 412L196 447Q178 451 170 455Q141 431 141 387Z"/>
<glyph unicode="¨" glyph-name="dieresis" horiz-adv-x="454" d="M83 631V721H155V631H83ZM298 631V721H370V631H298Z"/>
<glyph unicode="©" glyph-name="copyright" horiz-adv-x="884" d="M83 204T83 353T188 607T442 712T695 607T800 353T695 99T442 -6T189 99ZM133 482T133 353T223 134T442 44T660 134T750 353Q750 481 660 571T442 662T224 572ZM326 255V450Q326 465 330 481T346 516T380 545T435 557Q494 557 518 522T543 449H497Q497 484 478 497T435 511T392 498T372 448V256Q372 220 391 206T435 192T478 206T497 255H543Q543 239 539 223T523 188T489 158T433 146Q374 146 350 181T326 255Z"/>
<glyph unicode="ª" glyph-name="ordfeminine" horiz-adv-x="414" d="M79 465Q79 511 109 536T189 562H289V598Q289 667 214 667Q181 667 159 650T137 597H92Q92 653 129 682T213 711Q263 711 298 684T334 600V360H289V391Q254 354 199 354Q146 354 113 381T79 465ZM124 465Q124 398 201 398Q236 398 262 419T289 476V521H190Q124 521 124 465Z"/>
<glyph unicode="«" glyph-name="guillemotleft" horiz-adv-x="491" d="M33 265L214 446V374L104 265L214 155V84L33 265ZM236 265L417 446V374L306 265L417 155V84L236 265Z"/>
<glyph unicode="¬" glyph-name="logicalnot" horiz-adv-x="566" d="M79 348V402H486V176H431V348H79Z"/>
<glyph unicode="­" glyph-name="uni00AD" horiz-adv-x="590" d="M85 259V309H505V259H85Z"/>
<glyph unicode="®" glyph-name="registered" horiz-adv-x="884" d="M83 204T83 353T188 607T442 712T695 607T800 353T695 99T442 -6T189 99ZM133 482T133 353T223 134T442 44T660 134T750 353T660 572T442 662T224 572ZM339 149V547H458Q490 547 512 536T545 506T560 472T565 441V417Q565 397 559 378T532 337T477 311L559 149H509L427 310H383V149H339ZM383 353H459Q483 353 502 367T521 417V439Q521 475 502 489T458 503H383V353Z"/>
<glyph unicode="¯" glyph-name="overscore" horiz-adv-x="463" d="M83 614V665H379V614H83Z"/>
<glyph unicode="°" glyph-name="degree" horiz-adv-x="349" d="M49 589Q49 641 85 677T173 714Q226 714 262 678T299 589Q299 538 262 501T173 464Q122 464 86 501T49 589ZM94 589Q94 557 117 534T173 511Q206 511 229 534T253 589Q253 622 230 645T173 668Q141 668 118 645T94 589Z"/>
<glyph unicode="±" glyph-name="plusminus" horiz-adv-x="570" d="M79 0V50H489V0H79ZM79 259V309H259V473H310V309H490V259H310V92H259V259H79Z"/>
<glyph unicode="²" glyph-name="uni00B2" horiz-adv-x="369" d="M79 361V433Q79 480 127 517Q138 525 172 545T223 580Q244 598 244 624Q244 682 185 682Q159 682 142 666T125 619H79Q79 666 109 696T185 727Q232 727 260 699T289 625Q289 578 253 547Q238 534 203 514T152 480Q125 456 125 430V407H288V361H79Z"/>
<glyph unicode="³" glyph-name="uni00B3" horiz-adv-x="366" d="M79 464H124Q124 429 142 415T182 401Q204 401 222 413T241 456V481Q241 534 182 534H157V570L225 677H94V722H279V680L211 575Q286 560 286 482V456Q286 422 262 389T183 355Q127 355 103 389T79 464Z"/>
<glyph unicode="´" glyph-name="acute" horiz-adv-x="303" d="M83 594L155 741H219L131 594H83Z"/>
<glyph unicode="µ" glyph-name="uni00B5" horiz-adv-x="550" d="M83 -194V527H138V177Q138 122 168 84T274 45Q335 45 373 79T411 171V527H466V0H411V53Q364 -9 274 -9Q189 -9 138 37V-194H83Z"/>
<glyph unicode="¶" glyph-name="paragraph" horiz-adv-x="560" d="M83 554Q83 636 129 677T262 719H476V0H421V665H318V0H263V400Q182 400 133 444T83 554Z"/>
<glyph unicode="·" glyph-name="middot" horiz-adv-x="254" d="M83 223V311H170V223H83Z"/>
<glyph unicode="¸" glyph-name="cedilla" horiz-adv-x="284" d="M83 -185L150 -43H200L144 -185H83Z"/>
<glyph unicode="¹" glyph-name="uni00B9" horiz-adv-x="350" d="M79 361V406H151V677L98 672V716L196 725V406H270V361H79Z"/>
<glyph unicode="º" glyph-name="ordmasculine" horiz-adv-x="416" d="M79 476V586Q79 643 114 676T207 710Q266 710 301 677T336 586V476Q336 419 301 386T207 352Q148 352 114 385T79 476ZM124 476Q124 443 142 420T207 396Q246 396 268 417T290 476V586Q290 620 272 643T207 666Q168 666 146 645T124 586V476Z"/>
<glyph unicode="»" glyph-name="guillemotright" horiz-adv-x="490" d="M73 85V156L183 266L73 375V447L253 266L73 85ZM276 85V156L385 266L276 375V447L456 266L276 85Z"/>
<glyph unicode="¼" glyph-name="onequarter" horiz-adv-x="721" d="M79 361V406H151V677L98 672V716L196 725V406H270V361H79ZM200 -54L471 771H520L251 -54H200ZM440 100V142L522 363H567L487 145H596V277H641V0H596V100H440Z"/>
<glyph unicode="½" glyph-name="onehalf" horiz-adv-x="754" d="M79 361V406H151V677Q142 676 123 674T98 672V716L196 725V406H270V361H79ZM200 -54L471 771H520L251 -54H200ZM464 0V72Q464 119 512 156Q521 163 557 183T611 221T629 263Q629 321 570 321Q544 321 527 305T510 258H464Q464 305 494 335T570 366Q617 366 645 338T674 264Q674 217 638 186Q625 175 589 155T532 115T510 69V46H673V0H464Z"/>
<glyph unicode="¾" glyph-name="threequarters" horiz-adv-x="731" d="M79 464H124Q124 429 142 415T182 401Q204 401 222 413T241 456V481Q241 534 182 534H157V570L225 677H94V722H279V680L211 575Q286 560 286 482V456Q286 422 262 389T183 355Q127 355 103 389T79 464ZM210 -54L481 771H530L261 -54H210ZM450 100V142L532 363H577L497 145H606V277H651V0H606V100H450Z"/>
<glyph unicode="¿" glyph-name="questiondown" horiz-adv-x="429" d="M28 6Q28 67 71 117Q89 138 132 170T190 219Q219 250 219 309V334H274V312Q274 235 230 187Q211 166 170 136T113 88Q83 55 83 7Q83 -61 119 -97T223 -134Q244 -134 264 -129T308 -112T347 -72T365 -5H420Q420 -32 410 -60T380 -118T318 -167T223 -186Q136 -186 82 -133T28 6ZM203 451V534H285V451H203Z"/>
<glyph unicode="À" glyph-name="Agrave" horiz-adv-x="542" d="M28 0L214 713H324L513 0H460L406 208H137L82 0H28ZM150 261H392L288 664H254L150 261ZM173 928H237L309 781H260L173 928Z"/>
<glyph unicode="Á" glyph-name="Aacute" horiz-adv-x="542" d="M28 0L214 713H324L513 0H460L406 208H137L82 0H28ZM150 261H392L288 664H254L150 261ZM228 781L300 928H364L276 781H228Z"/>
<glyph unicode="Â" glyph-name="Acircumflex" horiz-adv-x="542" d="M28 0L214 713H324L513 0H460L406 208H137L82 0H28ZM142 792L242 917H297L397 792H348L270 873L192 792H142ZM150 261H392L288 664H254L150 261Z"/>
<glyph unicode="Ã" glyph-name="Atilde" horiz-adv-x="542" d="M28 0L214 713H324L513 0H460L406 208H137L82 0H28ZM116 827Q165 875 206 875Q229 875 270 853T333 830Q361 830 392 861L424 830Q375 782 334 782Q310 782 270 804T207 827Q180 827 148 796L116 827ZM150 261H392L288 664H254L150 261Z"/>
<glyph unicode="Ä" glyph-name="Adieresis" horiz-adv-x="542" d="M28 0L214 713H324L513 0H460L406 208H137L82 0H28ZM128 793V883H200V793H128ZM150 261H392L288 664H254L150 261ZM343 793V883H415V793H343Z"/>
<glyph unicode="Å" glyph-name="Aring" horiz-adv-x="542" d="M28 0L214 713H324L513 0H460L406 208H137L82 0H28ZM150 261H392L288 664H254L150 261ZM170 817T170 858T199 928T269 958Q311 958 340 929T370 858Q370 817 341 788T269 758Q229 758 200 787ZM212 858Q212 835 229 818T269 801Q293 801 310 818T328 858Q328 882 311 899T269 916Q246 916 229 899T212 858Z"/>
<glyph unicode="Æ" glyph-name="AE" horiz-adv-x="793" d="M28 0L214 713H739V659H419V405H714V351H419V54H739V0H364V208H136L81 0H28ZM149 262H364V659H254L149 262Z"/>
<glyph unicode="Ç" glyph-name="Ccedilla" horiz-adv-x="518" d="M68 177V537Q68 557 73 579T93 626T128 672T185 706T265 720Q319 720 359 700T421 650T451 591T461 536H406Q406 576 391 603T352 643T307 661T265 666T223 661T178 644T138 603T123 535V177Q123 137 138 109T177 68T223 50T265 45T307 50T352 67T391 108T406 176H461Q461 150 452 121T422 62T360 11T264 -9Q210 -9 170 11T108 61T78 121T68 177ZM177 -185L244 -43H294L238 -185H177Z"/>
<glyph unicode="È" glyph-name="Egrave" horiz-adv-x="511" d="M83 0V713H457V659H138V405H433V351H138V54H457V0H83ZM189 929H253L325 782H276L189 929Z"/>
<glyph unicode="É" glyph-name="Eacute" horiz-adv-x="511" d="M83 0V713H457V659H138V405H433V351H138V54H457V0H83ZM217 781L289 928H353L265 781H217Z"/>
<glyph unicode="Ê" glyph-name="Ecircumflex" horiz-adv-x="511" d="M83 0V713H457V659H138V405H433V351H138V54H457V0H83ZM143 792L243 917H298L398 792H349L271 873L193 792H143Z"/>
<glyph unicode="Ë" glyph-name="Edieresis" horiz-adv-x="511" d="M83 0V713H457V659H138V405H433V351H138V54H457V0H83ZM128 792V882H200V792H128ZM343 792V882H415V792H343Z"/>
<glyph unicode="Ì" glyph-name="Igrave" horiz-adv-x="220" d="M1 928H65L137 781H88L1 928ZM84 0V713H139V0H84Z"/>
<glyph unicode="Í" glyph-name="Iacute" horiz-adv-x="223" d="M84 0V713H139V0H84ZM86 781L158 928H222L134 781H86Z"/>
<glyph unicode="Î" glyph-name="Icircumflex" horiz-adv-x="222" d="M-16 792L84 917H139L239 792H190L112 873L34 792H-16ZM84 0V713H139V0H84Z"/>
<glyph unicode="Ï" glyph-name="Idieresis" horiz-adv-x="222" d="M-32 793V883H40V793H-32ZM84 0V713H139V0H84ZM183 793V883H255V793H183Z"/>
<glyph unicode="Ð" glyph-name="Eth" horiz-adv-x="614" d="M79 353V403H141V714H347Q402 714 441 695T499 644T526 585T534 531V186Q534 159 527 131T501 71T444 20T351 0H141V353H79ZM196 54H349Q370 54 389 59T431 77T466 118T479 187V528Q479 568 466 596T430 637T388 655T347 660H196V403H366V353H196V54Z"/>
<glyph unicode="Ñ" glyph-name="Ntilde" horiz-adv-x="565" d="M83 0V713H157L426 77V713H481V0H404L138 628V0H83ZM125 824Q174 872 215 872Q238 872 279 850T342 827Q370 827 401 858L433 827Q384 779 343 779Q320 779 280 801T216 824Q189 824 157 793L125 824Z"/>
<glyph unicode="Ò" glyph-name="Ograve" horiz-adv-x="540" d="M73 177V537Q73 557 78 579T98 626T133 672T190 706T270 720Q324 720 364 700T426 650T456 591T466 536V176Q466 150 457 121T427 62T365 11T269 -9Q215 -9 175 11T113 61T83 121T73 177ZM128 177Q128 137 143 109T182 68T228 50T270 45T312 50T357 68T396 109T411 177V535Q411 575 396 603T357 643T312 661T270 666T228 661T183 644T143 603T128 535V177ZM189 928H253L325 781H276L189 928Z"/>
<glyph unicode="Ó" glyph-name="Oacute" horiz-adv-x="540" d="M73 177V537Q73 557 78 579T98 626T133 672T190 706T270 720Q324 720 364 700T426 650T456 591T466 536V176Q466 150 457 121T427 62T365 11T269 -9Q215 -9 175 11T113 61T83 121T73 177ZM128 177Q128 137 143 109T182 68T228 50T270 45T312 50T357 68T396 109T411 177V535Q411 575 396 603T357 643T312 661T270 666T228 661T183 644T143 603T128 535V177ZM207 781L279 928H343L255 781H207Z"/>
<glyph unicode="Ô" glyph-name="Ocircumflex" horiz-adv-x="540" d="M73 177V537Q73 557 78 579T98 626T133 672T190 706T270 720Q324 720 364 700T426 650T456 591T466 536V176Q466 150 457 121T427 62T365 11T269 -9Q215 -9 175 11T113 61T83 121T73 177ZM128 177Q128 137 143 109T182 68T228 50T270 45T312 50T357 68T396 109T411 177V535Q411 575 396 603T357 643T312 661T270 666T228 661T183 644T143 603T128 535V177ZM143 792L243 917H298L398 792H349L271 873L193 792H143Z"/>
<glyph unicode="Õ" glyph-name="Otilde" horiz-adv-x="540" d="M73 177V537Q73 557 78 579T98 626T133 672T190 706T270 720Q324 720 364 700T426 650T456 591T466 536V176Q466 150 457 121T427 62T365 11T269 -9Q215 -9 175 11T113 61T83 121T73 177ZM114 827Q163 875 204 875Q227 875 268 853T331 830Q359 830 390 861L422 830Q373 782 332 782Q308 782 268 804T205 827Q178 827 146 796L114 827ZM128 177Q128 137 143 109T182 68T228 50T270 45T312 50T357 68T396 109T411 177V535Q411 575 396 603T357 643T312 661T270 666T228 661T183 644T143 603T128 535V177Z"/>
<glyph unicode="Ö" glyph-name="Odieresis" horiz-adv-x="540" d="M73 177V537Q73 557 78 579T98 626T133 672T190 706T270 720Q324 720 364 700T426 650T456 591T466 536V176Q466 150 457 121T427 62T365 11T269 -9Q215 -9 175 11T113 61T83 121T73 177ZM127 792V882H199V792H127ZM128 177Q128 137 143 109T182 68T228 50T270 45T312 50T357 68T396 109T411 177V535Q411 575 396 603T357 643T312 661T270 666T228 661T183 644T143 603T128 535V177ZM342 792V882H414V792H342Z"/>
<glyph unicode="×" glyph-name="multiply" horiz-adv-x="567" d="M112 134L248 270L112 406L147 441L283 305L419 441L454 406L318 270L454 134L419 99L283 235L147 99L112 134Z"/>
<glyph unicode="Ø" glyph-name="Oslash" horiz-adv-x="540" d="M73 177V537Q73 557 78 579T98 626T133 672T190 706T270 720Q321 720 358 703L380 771H434L402 674Q435 646 450 607T466 536V176Q466 150 457 121T427 62T365 11T269 -9Q223 -9 185 6L165 -54H109L138 35Q105 64 89 103T73 177ZM128 177Q128 122 156 89L341 652Q308 666 270 666Q249 666 228 661T183 644T143 603T128 535V177ZM201 58Q231 45 270 45Q291 45 312 50T357 68T396 109T411 177V535Q411 587 384 619L201 58Z"/>
<glyph unicode="Ù" glyph-name="Ugrave" horiz-adv-x="540" d="M73 177V713H128V177Q128 137 143 109T182 68T228 50T270 45T312 50T357 68T396 109T411 177V713H466V176Q466 148 457 119T428 60T367 10T271 -9Q215 -9 174 10T113 60T83 120T73 177ZM191 928H255L327 781H278L191 928Z"/>
<glyph unicode="Ú" glyph-name="Uacute" horiz-adv-x="540" d="M73 177V713H128V177Q128 137 143 109T182 68T228 50T270 45T312 50T357 68T396 109T411 177V713H466V176Q466 148 457 119T428 60T367 10T271 -9Q215 -9 174 10T113 60T83 120T73 177ZM209 781L281 928H345L257 781H209Z"/>
<glyph unicode="Û" glyph-name="Ucircumflex" horiz-adv-x="540" d="M73 177V713H128V177Q128 137 143 109T182 68T228 50T270 45T312 50T357 68T396 109T411 177V713H466V176Q466 148 457 119T428 60T367 10T271 -9Q215 -9 174 10T113 60T83 120T73 177ZM143 792L243 917H298L398 792H349L271 873L193 792H143Z"/>
<glyph unicode="Ü" glyph-name="Udieresis" horiz-adv-x="540" d="M73 177V713H128V177Q128 137 143 109T182 68T228 50T270 45T312 50T357 68T396 109T411 177V713H466V176Q466 148 457 119T428 60T367 10T271 -9Q215 -9 174 10T113 60T83 120T73 177ZM127 793V883H199V793H127ZM342 793V883H414V793H342Z"/>
<glyph unicode="Ý" glyph-name="Yacute" horiz-adv-x="491" d="M29 713H89L245 325L401 713H461L272 257V0H217V258L29 713ZM187 781L259 928H323L235 781H187Z"/>
<glyph unicode="Þ" glyph-name="Thorn" horiz-adv-x="564" d="M83 0V713H138V553H308Q393 553 444 500T495 360Q495 271 445 219T308 166H138V0H83ZM138 221H308Q363 221 402 252T441 360Q441 424 406 461T308 498H138V221Z"/>
<glyph unicode="ß" glyph-name="germandbls" horiz-adv-x="548" d="M83 0V536Q83 562 91 590T117 649T175 699T270 719Q324 719 362 699T419 648T445 589T453 534Q453 489 433 451T376 400Q417 386 442 354T473 294T479 240V186Q479 158 472 130T446 71T389 20T296 0H244V54H294Q315 54 334 59T376 77T411 118T424 186V237Q424 277 412 305T381 346T343 364T303 369H280V423H302H306Q351 423 374 452T398 533Q398 573 385 601T351 642T310 660T270 665T229 660T187 642T152 601T138 533V0H83Z"/>
<glyph unicode="à" glyph-name="agrave" horiz-adv-x="524" d="M59 158Q59 226 105 264T223 302H389V366Q389 482 263 482Q207 482 171 456T135 373H80Q80 429 110 467T179 521T262 536Q338 536 391 496T444 369V0H389V63Q337 -9 231 -9Q160 -9 110 33T59 158ZM114 158Q114 45 243 45Q301 45 345 80T389 176V252H226Q114 252 114 158ZM186 741H250L322 594H273L186 741Z"/>
<glyph unicode="á" glyph-name="aacute" horiz-adv-x="524" d="M59 158Q59 226 105 264T223 302H389V366Q389 482 263 482Q207 482 171 456T135 373H80Q80 429 110 467T179 521T262 536Q338 536 391 496T444 369V0H389V63Q337 -9 231 -9Q160 -9 110 33T59 158ZM114 158Q114 45 243 45Q301 45 345 80T389 176V252H226Q114 252 114 158ZM214 594L286 741H350L262 594H214Z"/>
<glyph unicode="â" glyph-name="acircumflex" horiz-adv-x="524" d="M59 158Q59 226 105 264T223 302H389V366Q389 482 263 482Q207 482 171 456T135 373H80Q80 429 110 467T179 521T262 536Q338 536 391 496T444 369V0H389V63Q337 -9 231 -9Q160 -9 110 33T59 158ZM114 158Q114 45 243 45Q301 45 345 80T389 176V252H226Q114 252 114 158ZM138 594L238 719H293L393 594H344L266 675L188 594H138Z"/>
<glyph unicode="ã" glyph-name="atilde" horiz-adv-x="524" d="M59 158Q59 226 105 264T223 302H389V366Q389 482 263 482Q207 482 171 456T135 373H80Q80 429 110 467T179 521T262 536Q338 536 391 496T444 369V0H389V63Q337 -9 231 -9Q160 -9 110 33T59 158ZM110 668Q159 716 200 716Q223 716 264 694T327 671Q355 671 386 702L418 671Q369 623 328 623Q304 623 264 645T201 668Q174 668 142 637L110 668ZM114 158Q114 45 243 45Q301 45 345 80T389 176V252H226Q114 252 114 158Z"/>
<glyph unicode="ä" glyph-name="adieresis" horiz-adv-x="524" d="M59 158Q59 226 105 264T223 302H389V366Q389 482 263 482Q207 482 171 456T135 373H80Q80 429 110 467T179 521T262 536Q338 536 391 496T444 369V0H389V63Q337 -9 231 -9Q160 -9 110 33T59 158ZM114 158Q114 45 243 45Q301 45 345 80T389 176V252H226Q114 252 114 158ZM121 631V721H193V631H121ZM336 631V721H408V631H336Z"/>
<glyph unicode="å" glyph-name="aring" horiz-adv-x="524" d="M59 158Q59 226 105 264T223 302H389V366Q389 482 263 482Q207 482 171 456T135 373H80Q80 429 110 467T179 521T262 536Q338 536 391 496T444 369V0H389V63Q337 -9 231 -9Q160 -9 110 33T59 158ZM114 158Q114 45 243 45Q301 45 345 80T389 176V252H226Q114 252 114 158ZM167 644T167 685T196 755T266 785Q308 785 337 756T367 685Q367 644 338 615T266 585Q226 585 197 614ZM209 685Q209 662 226 645T266 628Q290 628 307 645T325 685Q325 709 308 726T266 743Q243 743 226 726T209 685Z"/>
<glyph unicode="æ" glyph-name="ae" horiz-adv-x="844" d="M59 158Q59 226 105 264T223 303H389V367Q389 482 262 482Q209 482 173 457T136 376V373H81V375Q81 431 111 469T181 521T261 536Q372 536 420 460Q471 536 580 536Q668 536 719 486T770 350V250H444V177Q444 122 474 84T580 45Q640 45 675 75T714 162H769Q765 83 714 37T580 -9Q525 -9 480 16T413 85Q390 42 340 17T231 -9Q157 -9 108 33T59 158ZM114 158Q114 45 242 45Q311 45 350 85T389 175V253H226Q114 253 114 158ZM444 303H715V350Q715 405 685 443T580 482Q517 482 481 449T444 356V303Z"/>
<glyph unicode="ç" glyph-name="ccedilla" horiz-adv-x="514" d="M73 177V350Q73 434 126 485T267 536Q352 536 403 489T459 361H405Q402 412 371 447T267 482Q202 482 165 448T128 350V177Q128 122 159 83T267 44Q327 44 363 75T404 162H459Q455 83 403 37T267 -10Q178 -10 126 40T73 177ZM181 -185L248 -43H298L242 -185H181Z"/>
<glyph unicode="è" glyph-name="egrave" horiz-adv-x="534" d="M73 177V350Q73 434 126 485T267 536Q355 536 407 486T460 350V250H128V177Q128 122 159 83T267 44Q327 44 363 75T404 162H459Q455 83 403 37T267 -10Q178 -10 126 40T73 177ZM128 304H405V350Q405 405 374 443T267 482Q202 482 165 448T128 350V304ZM189 741H253L325 594H276L189 741Z"/>
<glyph unicode="é" glyph-name="eacute" horiz-adv-x="534" d="M73 177V350Q73 434 126 485T267 536Q355 536 407 486T460 350V250H128V177Q128 122 159 83T267 44Q327 44 363 75T404 162H459Q455 83 403 37T267 -10Q178 -10 126 40T73 177ZM128 304H405V350Q405 405 374 443T267 482Q202 482 165 448T128 350V304ZM215 594L287 741H351L263 594H215Z"/>
<glyph unicode="ê" glyph-name="ecircumflex" horiz-adv-x="534" d="M73 177V350Q73 434 126 485T267 536Q355 536 407 486T460 350V250H128V177Q128 122 159 83T267 44Q327 44 363 75T404 162H459Q455 83 403 37T267 -10Q178 -10 126 40T73 177ZM128 304H405V350Q405 405 374 443T267 482Q202 482 165 448T128 350V304ZM145 593L245 718H300L400 593H351L273 674L195 593H145Z"/>
<glyph unicode="ë" glyph-name="edieresis" horiz-adv-x="534" d="M73 177V350Q73 434 126 485T267 536Q355 536 407 486T460 350V250H128V177Q128 122 159 83T267 44Q327 44 363 75T404 162H459Q455 83 403 37T267 -10Q178 -10 126 40T73 177ZM127 631V721H199V631H127ZM128 304H405V350Q405 405 374 443T267 482Q202 482 165 448T128 350V304ZM342 631V721H414V631H342Z"/>
<glyph unicode="ì" glyph-name="igrave" horiz-adv-x="221" d="M-5 741H59L131 594H82L-5 741ZM82 0V527H136V0H82Z"/>
<glyph unicode="í" glyph-name="iacute" horiz-adv-x="223" d="M84 0V527H138V0H84ZM84 594L156 741H220L132 594H84Z"/>
<glyph unicode="î" glyph-name="icircumflex" horiz-adv-x="222" d="M-20 594L80 719H135L235 594H186L108 675L30 594H-20ZM83 0V527H137V0H83Z"/>
<glyph unicode="ï" glyph-name="idieresis" horiz-adv-x="220" d="M-35 631V721H37V631H-35ZM82 0V527H136V0H82ZM180 631V721H252V631H180Z"/>
<glyph unicode="ð" glyph-name="eth" horiz-adv-x="550" d="M79 174V259Q79 285 88 314T117 374T178 425T272 445Q365 445 415 383V533Q415 561 407 585L322 499L287 534L380 628Q342 666 272 666V720Q363 720 417 664L499 748L534 713L446 624Q470 579 470 535V172Q470 146 461 118T431 60T371 11T276 -9Q232 -9 196 4T139 38T104 84T85 132T79 174ZM134 177Q134 137 149 109T188 68T234 50T276 45T317 50T362 68T400 109T415 177V258Q415 290 405 315T380 354T345 377T309 388T276 391Q255 391 234 386T189 368T149 327T134 258V177Z"/>
<glyph unicode="ñ" glyph-name="ntilde" horiz-adv-x="544" d="M83 0V526H138V464Q186 536 284 536Q371 536 417 487T464 350V0H409V350Q409 376 405 396T389 437T351 470T284 482Q222 482 180 446T138 352V0H83ZM123 668Q172 716 213 716Q236 716 277 694T340 671Q368 671 399 702L431 671Q382 623 341 623Q318 623 278 645T214 668Q187 668 155 637L123 668Z"/>
<glyph unicode="ò" glyph-name="ograve" horiz-adv-x="534" d="M73 177V350Q73 434 126 485T267 536Q355 536 407 486T460 350V177Q460 92 407 41T267 -10Q178 -10 126 40T73 177ZM128 177Q128 122 159 83T267 44Q331 44 368 79T405 177V350Q405 405 374 443T267 482Q202 482 165 448T128 350V177ZM190 741H254L326 594H277L190 741Z"/>
<glyph unicode="ó" glyph-name="oacute" horiz-adv-x="534" d="M73 177V350Q73 434 126 485T267 536Q355 536 407 486T460 350V177Q460 92 407 41T267 -10Q178 -10 126 40T73 177ZM128 177Q128 122 159 83T267 44Q331 44 368 79T405 177V350Q405 405 374 443T267 482Q202 482 165 448T128 350V177ZM209 594L281 741H345L257 594H209Z"/>
<glyph unicode="ô" glyph-name="ocircumflex" horiz-adv-x="534" d="M73 177V350Q73 434 126 485T267 536Q355 536 407 486T460 350V177Q460 92 407 41T267 -10Q178 -10 126 40T73 177ZM128 177Q128 122 159 83T267 44Q331 44 368 79T405 177V350Q405 405 374 443T267 482Q202 482 165 448T128 350V177ZM140 593L240 718H295L395 593H346L268 674L190 593H140Z"/>
<glyph unicode="õ" glyph-name="otilde" horiz-adv-x="534" d="M73 177V350Q73 434 126 485T267 536Q355 536 407 486T460 350V177Q460 92 407 41T267 -10Q178 -10 126 40T73 177ZM112 668Q161 716 202 716Q225 716 266 694T329 671Q357 671 388 702L420 671Q371 623 330 623Q306 623 266 645T203 668Q176 668 144 637L112 668ZM128 177Q128 122 159 83T267 44Q331 44 368 79T405 177V350Q405 405 374 443T267 482Q202 482 165 448T128 350V177Z"/>
<glyph unicode="ö" glyph-name="odieresis" horiz-adv-x="534" d="M73 177V350Q73 434 126 485T267 536Q355 536 407 486T460 350V177Q460 92 407 41T267 -10Q178 -10 126 40T73 177ZM123 631V721H195V631H123ZM128 177Q128 122 159 83T267 44Q331 44 368 79T405 177V350Q405 405 374 443T267 482Q202 482 165 448T128 350V177ZM338 631V721H410V631H338Z"/>
<glyph unicode="÷" glyph-name="divide" horiz-adv-x="538" d="M80 188V238H450V188H80ZM219 0V91H310V0H219ZM219 332V423H310V332H219Z"/>
<glyph unicode="ø" glyph-name="oslash" horiz-adv-x="534" d="M73 177V350Q73 434 126 485T267 536Q298 536 330 528L377 674H432L377 508Q460 460 460 350V177Q460 92 407 41T267 -10Q237 -10 210 -4L164 -148H108L161 14Q73 61 73 177ZM128 177Q128 100 178 67L313 477Q290 482 267 482Q202 482 165 448T128 350V177ZM227 47Q245 44 267 44Q331 44 368 79T405 177V350Q405 422 360 455L227 47Z"/>
<glyph unicode="ù" glyph-name="ugrave" horiz-adv-x="546" d="M79 177V527H134V177Q134 122 164 84T270 45Q331 45 369 79T407 171V527H462V0H407V53Q360 -9 270 -9Q181 -9 130 41T79 177ZM188 741H252L324 594H275L188 741Z"/>
<glyph unicode="ú" glyph-name="uacute" horiz-adv-x="546" d="M79 177V527H134V177Q134 122 164 84T270 45Q331 45 369 79T407 171V527H462V0H407V53Q360 -9 270 -9Q181 -9 130 41T79 177ZM211 594L283 741H347L259 594H211Z"/>
<glyph unicode="û" glyph-name="ucircumflex" horiz-adv-x="546" d="M79 177V527H134V177Q134 122 164 84T270 45Q331 45 369 79T407 171V527H462V0H407V53Q360 -9 270 -9Q181 -9 130 41T79 177ZM141 594L241 719H296L396 594H347L269 675L191 594H141Z"/>
<glyph unicode="ü" glyph-name="udieresis" horiz-adv-x="546" d="M79 177V527H134V177Q134 122 164 84T270 45Q331 45 369 79T407 171V527H462V0H407V53Q360 -9 270 -9Q181 -9 130 41T79 177ZM128 631V721H200V631H128ZM343 631V721H415V631H343Z"/>
<glyph unicode="ý" glyph-name="yacute" horiz-adv-x="465" d="M34 527H91L221 51H249L373 527H430L262 -103Q241 -179 206 -202T104 -226H79V-172H117Q155 -172 175 -159T207 -106L237 0H182L34 527ZM174 594L246 741H310L222 594H174Z"/>
<glyph unicode="þ" glyph-name="thorn" horiz-adv-x="537" d="M83 -226V712H138V474Q190 536 273 536Q361 536 412 486T463 350V177Q463 92 411 41T273 -10Q181 -10 138 52V-226H83ZM138 177Q138 152 143 131T163 89T205 56T273 44Q337 44 372 79T408 177V350Q408 405 378 443T273 482Q209 482 174 448T138 350V177Z"/>
<glyph unicode="ÿ" glyph-name="ydieresis" horiz-adv-x="445" d="M24 527H81L211 51H239L363 527H420L252 -103Q231 -179 196 -202T94 -226H69V-172H107Q145 -172 165 -159T197 -106L227 0H172L24 527ZM81 631V721H153V631H81ZM296 631V721H368V631H296Z"/>
<glyph unicode="Ā" glyph-name="Amacron" horiz-adv-x="542" d="M28 0L214 713H324L513 0H460L406 208H137L82 0H28ZM122 793V844H418V793H122ZM150 261H392L288 664H254L150 261Z"/>
<glyph unicode="ā" glyph-name="amacron" horiz-adv-x="524" d="M59 158Q59 226 105 264T223 302H389V366Q389 482 263 482Q207 482 171 456T135 373H80Q80 429 110 467T179 521T262 536Q338 536 391 496T444 369V0H389V63Q337 -9 231 -9Q160 -9 110 33T59 158ZM114 158Q114 45 243 45Q301 45 345 80T389 176V252H226Q114 252 114 158ZM118 625V676H414V625H118Z"/>
<glyph unicode="Ă" glyph-name="Abreve" horiz-adv-x="542" d="M28 0L214 713H324L513 0H460L406 208H137L82 0H28ZM109 907H160Q166 868 195 848T272 827Q369 827 383 907H431Q424 845 382 814T272 782Q201 782 159 813T109 907ZM150 261H392L288 664H254L150 261Z"/>
<glyph unicode="ă" glyph-name="abreve" horiz-adv-x="524" d="M59 158Q59 226 105 264T223 302H389V366Q389 482 263 482Q207 482 171 456T135 373H80Q80 429 110 467T179 521T262 536Q338 536 391 496T444 369V0H389V63Q337 -9 231 -9Q160 -9 110 33T59 158ZM100 730H151Q157 691 186 671T263 650Q360 650 374 730H422Q415 668 373 637T263 605Q192 605 150 636T100 730ZM114 158Q114 45 243 45Q301 45 345 80T389 176V252H226Q114 252 114 158Z"/>
<glyph unicode="Ą" glyph-name="Aogonek" horiz-adv-x="568" d="M54 0L240 713H350L539 0H486L432 208H163L108 0H54ZM176 261H418L314 664H280L176 261ZM496 -43H554L642 -186H572L496 -43Z"/>
<glyph unicode="ą" glyph-name="aogonek" horiz-adv-x="524" d="M59 158Q59 226 105 264T223 302H389V366Q389 482 263 482Q207 482 171 456T135 373H80Q80 429 110 467T179 521T262 536Q338 536 391 496T444 369V0H389V63Q337 -9 231 -9Q160 -9 110 33T59 158ZM114 158Q114 45 243 45Q301 45 345 80T389 176V252H226Q114 252 114 158ZM391 -43H449L537 -186H467L391 -43Z"/>
<glyph unicode="Ć" glyph-name="Cacute" horiz-adv-x="518" d="M68 177V537Q68 557 73 579T93 626T128 672T185 706T265 720Q319 720 359 700T421 650T451 591T461 536H406Q406 576 391 603T352 643T307 661T265 666T223 661T178 644T138 603T123 535V177Q123 137 138 109T177 68T223 50T265 45T307 50T352 67T391 108T406 176H461Q461 150 452 121T422 62T360 11T264 -9Q210 -9 170 11T108 61T78 121T68 177ZM205 781L277 928H341L253 781H205Z"/>
<glyph unicode="ć" glyph-name="cacute" horiz-adv-x="514" d="M73 177V350Q73 434 126 485T267 536Q352 536 403 489T459 361H405Q402 412 371 447T267 482Q202 482 165 448T128 350V177Q128 122 159 83T267 44Q327 44 363 75T404 162H459Q455 83 403 37T267 -10Q178 -10 126 40T73 177ZM212 594L284 741H348L260 594H212Z"/>
<glyph unicode="Ĉ" glyph-name="Ccircumflex" horiz-adv-x="518" d="M68 177V537Q68 557 73 579T93 626T128 672T185 706T265 720Q319 720 359 700T421 650T451 591T461 536H406Q406 576 391 603T352 643T307 661T265 666T223 661T178 644T138 603T123 535V177Q123 137 138 109T177 68T223 50T265 45T307 50T352 67T391 108T406 176H461Q461 150 452 121T422 62T360 11T264 -9Q210 -9 170 11T108 61T78 121T68 177ZM140 793L240 918H295L395 793H346L268 874L190 793H140Z"/>
<glyph unicode="ĉ" glyph-name="ccircumflex" horiz-adv-x="514" d="M73 177V350Q73 434 126 485T267 536Q352 536 403 489T459 361H405Q402 412 371 447T267 482Q202 482 165 448T128 350V177Q128 122 159 83T267 44Q327 44 363 75T404 162H459Q455 83 403 37T267 -10Q178 -10 126 40T73 177ZM140 594L240 719H295L395 594H346L268 675L190 594H140Z"/>
<glyph unicode="Ċ" glyph-name="Cdotaccent" horiz-adv-x="518" d="M68 177V537Q68 557 73 579T93 626T128 672T185 706T265 720Q319 720 359 700T421 650T451 591T461 536H406Q406 576 391 603T352 643T307 661T265 666T223 661T178 644T138 603T123 535V177Q123 137 138 109T177 68T223 50T265 45T307 50T352 67T391 108T406 176H461Q461 150 452 121T422 62T360 11T264 -9Q210 -9 170 11T108 61T78 121T68 177ZM229 793V861H302V793H229Z"/>
<glyph unicode="ċ" glyph-name="cdotaccent" horiz-adv-x="514" d="M73 177V350Q73 434 126 485T267 536Q352 536 403 489T459 361H405Q402 412 371 447T267 482Q202 482 165 448T128 350V177Q128 122 159 83T267 44Q327 44 363 75T404 162H459Q455 83 403 37T267 -10Q178 -10 126 40T73 177ZM231 631V699H304V631H231Z"/>
<glyph unicode="Č" glyph-name="Ccaron" horiz-adv-x="518" d="M68 177V537Q68 557 73 579T93 626T128 672T185 706T265 720Q319 720 359 700T421 650T451 591T461 536H406Q406 576 391 603T352 643T307 661T265 666T223 661T178 644T138 603T123 535V177Q123 137 138 109T177 68T223 50T265 45T307 50T352 67T391 108T406 176H461Q461 150 452 121T422 62T360 11T264 -9Q210 -9 170 11T108 61T78 121T68 177ZM137 918H186L264 837L342 918H392L292 793H237L137 918Z"/>
<glyph unicode="č" glyph-name="ccaron" horiz-adv-x="514" d="M73 177V350Q73 434 126 485T267 536Q352 536 403 489T459 361H405Q402 412 371 447T267 482Q202 482 165 448T128 350V177Q128 122 159 83T267 44Q327 44 363 75T404 162H459Q455 83 403 37T267 -10Q178 -10 126 40T73 177ZM140 719H189L267 638L345 719H395L295 594H240L140 719Z"/>
<glyph unicode="Ď" glyph-name="Dcaron" horiz-adv-x="550" d="M83 0V714H289Q344 714 383 695T441 644T468 585T476 531V186Q476 159 469 131T443 71T386 20T293 0H83ZM129 918H178L256 837L334 918H384L284 793H229L129 918ZM138 54H291Q312 54 331 59T373 77T408 118T421 187V528Q421 568 408 596T372 637T330 655T289 660H138V54Z"/>
<glyph unicode="ď" glyph-name="dcaron" horiz-adv-x="577" d="M73 177V350Q73 436 124 486T263 536Q347 536 399 474V712H454V0H399V52Q356 -10 263 -10Q177 -10 125 41T73 177ZM128 177Q128 114 163 79T263 44Q303 44 331 56T373 88T393 130T399 177V350Q399 413 364 447T263 482Q188 482 158 444T128 350V177ZM531 565L603 712H667L579 565H531Z"/>
<glyph unicode="Đ" glyph-name="Dcroat" horiz-adv-x="550" d="M25 338V388H83V714H289Q344 714 383 695T441 644T468 585T476 531V186Q476 159 469 131T443 71T386 20T293 0H83V338H25ZM138 54H291Q312 54 331 59T373 77T408 118T421 187V528Q421 568 408 596T372 637T330 655T289 660H138V388H321V338H138V54Z"/>
<glyph unicode="đ" glyph-name="" horiz-adv-x="538" d="M73 177V350Q73 436 124 486T263 536Q347 536 399 474V581H244V631H399V712H454V631H531V581H454V0H399V52Q356 -10 263 -10Q177 -10 125 41T73 177ZM128 177Q128 114 163 79T263 44Q303 44 331 56T373 88T393 130T399 177V350Q399 413 364 447T263 482Q188 482 158 444T128 350V177Z"/>
<glyph unicode="Ē" glyph-name="Emacron" horiz-adv-x="511" d="M83 0V713H457V659H138V405H433V351H138V54H457V0H83ZM117 793V844H413V793H117Z"/>
<glyph unicode="ē" glyph-name="emacron" horiz-adv-x="534" d="M73 177V350Q73 434 126 485T267 536Q355 536 407 486T460 350V250H128V177Q128 122 159 83T267 44Q327 44 363 75T404 162H459Q455 83 403 37T267 -10Q178 -10 126 40T73 177ZM120 624V675H416V624H120ZM128 304H405V350Q405 405 374 443T267 482Q202 482 165 448T128 350V304Z"/>
<glyph unicode="Ĕ" glyph-name="Ebreve" horiz-adv-x="511" d="M83 0V713H457V659H138V405H433V351H138V54H457V0H83ZM104 906H155Q161 867 190 847T267 826Q364 826 378 906H426Q419 844 377 813T267 781Q196 781 154 812T104 906Z"/>
<glyph unicode="ĕ" glyph-name="ebreve" horiz-adv-x="534" d="M73 177V350Q73 434 126 485T267 536Q355 536 407 486T460 350V250H128V177Q128 122 159 83T267 44Q327 44 363 75T404 162H459Q455 83 403 37T267 -10Q178 -10 126 40T73 177ZM105 730H156Q162 691 191 671T268 650Q365 650 379 730H427Q420 668 378 637T268 605Q197 605 155 636T105 730ZM128 304H405V350Q405 405 374 443T267 482Q202 482 165 448T128 350V304Z"/>
<glyph unicode="Ė" glyph-name="Edotaccent" horiz-adv-x="511" d="M83 0V713H457V659H138V405H433V351H138V54H457V0H83ZM228 793V861H301V793H228Z"/>
<glyph unicode="ė" glyph-name="edotaccent" horiz-adv-x="534" d="M73 177V350Q73 434 126 485T267 536Q355 536 407 486T460 350V250H128V177Q128 122 159 83T267 44Q327 44 363 75T404 162H459Q455 83 403 37T267 -10Q178 -10 126 40T73 177ZM128 304H405V350Q405 405 374 443T267 482Q202 482 165 448T128 350V304ZM230 631V699H303V631H230Z"/>
<glyph unicode="Ę" glyph-name="Eogonek" horiz-adv-x="511" d="M83 0V713H457V659H138V405H433V351H138V54H457V0H83ZM231 -43H289L377 -186H307L231 -43Z"/>
<glyph unicode="ę" glyph-name="eogonek" horiz-adv-x="534" d="M73 177V350Q73 434 126 485T267 536Q355 536 407 486T460 350V250H128V177Q128 122 159 83T267 44Q327 44 363 75T404 162H459Q455 83 403 37T267 -10Q178 -10 126 40T73 177ZM128 304H405V350Q405 405 374 443T267 482Q202 482 165 448T128 350V304ZM226 -43H284L372 -186H302L226 -43Z"/>
<glyph unicode="Ě" glyph-name="Ecaron" horiz-adv-x="511" d="M83 0V713H457V659H138V405H433V351H138V54H457V0H83ZM133 918H182L260 837L338 918H388L288 793H233L133 918Z"/>
<glyph unicode="ě" glyph-name="ecaron" horiz-adv-x="534" d="M73 177V350Q73 434 126 485T267 536Q355 536 407 486T460 350V250H128V177Q128 122 159 83T267 44Q327 44 363 75T404 162H459Q455 83 403 37T267 -10Q178 -10 126 40T73 177ZM128 304H405V350Q405 405 374 443T267 482Q202 482 165 448T128 350V304ZM139 720H188L266 639L344 720H394L294 595H239L139 720Z"/>
<glyph unicode="Ĝ" glyph-name="Gcircumflex" horiz-adv-x="540" d="M73 177V537Q73 557 78 579T98 626T133 672T190 706T270 720Q324 720 364 701T426 652T456 593T466 536H411Q411 576 396 603T357 643T312 660T270 665T228 661T183 644T143 603T128 535V177Q128 137 143 109T182 69T228 51T270 46T312 51T357 68T396 109T411 177V328H259V382H466V176Q466 150 457 121T426 62T364 11T268 -9Q214 -9 174 11T113 61T83 121T73 177ZM144 794L244 919H299L399 794H350L272 875L194 794H144Z"/>
<glyph unicode="ĝ" glyph-name="gcircumflex" horiz-adv-x="537" d="M73 177V350Q73 435 125 485T264 536Q306 536 343 520T398 475V527H453V-46Q453 -144 400 -185T264 -226Q187 -226 136 -185T81 -72H136Q140 -120 174 -146T264 -172Q292 -172 312 -168T353 -152T386 -114T398 -46V52Q353 -10 264 -10T124 40T73 177ZM128 177Q128 152 134 131T154 89T196 56T264 44Q328 44 363 79T398 177V350Q398 406 369 444T264 482Q199 482 164 448T128 350V177ZM143 594L243 719H298L398 594H349L271 675L193 594H143Z"/>
<glyph unicode="Ğ" glyph-name="Gbreve" horiz-adv-x="540" d="M73 177V537Q73 557 78 579T98 626T133 672T190 706T270 720Q324 720 364 701T426 652T456 593T466 536H411Q411 576 396 603T357 643T312 660T270 665T228 661T183 644T143 603T128 535V177Q128 137 143 109T182 69T228 51T270 46T312 51T357 68T396 109T411 177V328H259V382H466V176Q466 150 457 121T426 62T364 11T268 -9Q214 -9 174 11T113 61T83 121T73 177ZM111 906H162Q168 867 197 847T274 826Q371 826 385 906H433Q426 844 384 813T274 781Q203 781 161 812T111 906Z"/>
<glyph unicode="ğ" glyph-name="gbreve" horiz-adv-x="537" d="M73 177V350Q73 435 125 485T264 536Q306 536 343 520T398 475V527H453V-46Q453 -144 400 -185T264 -226Q187 -226 136 -185T81 -72H136Q140 -120 174 -146T264 -172Q292 -172 312 -168T353 -152T386 -114T398 -46V52Q353 -10 264 -10T124 40T73 177ZM109 730H160Q166 691 195 671T272 650Q369 650 383 730H431Q424 668 382 637T272 605Q201 605 159 636T109 730ZM128 177Q128 152 134 131T154 89T196 56T264 44Q328 44 363 79T398 177V350Q398 406 369 444T264 482Q199 482 164 448T128 350V177Z"/>
<glyph unicode="Ġ" glyph-name="Gdotaccent" horiz-adv-x="540" d="M73 177V537Q73 557 78 579T98 626T133 672T190 706T270 720Q324 720 364 701T426 652T456 593T466 536H411Q411 576 396 603T357 643T312 660T270 665T228 661T183 644T143 603T128 535V177Q128 137 143 109T182 69T228 51T270 46T312 51T357 68T396 109T411 177V328H259V382H466V176Q466 150 457 121T426 62T364 11T268 -9Q214 -9 174 11T113 61T83 121T73 177ZM235 793V861H308V793H235Z"/>
<glyph unicode="ġ" glyph-name="gdotaccent" horiz-adv-x="537" d="M73 177V350Q73 435 125 485T264 536Q306 536 343 520T398 475V527H453V-46Q453 -144 400 -185T264 -226Q187 -226 136 -185T81 -72H136Q140 -120 174 -146T264 -172Q292 -172 312 -168T353 -152T386 -114T398 -46V52Q353 -10 264 -10T124 40T73 177ZM128 177Q128 152 134 131T154 89T196 56T264 44Q328 44 363 79T398 177V350Q398 406 369 444T264 482Q199 482 164 448T128 350V177ZM234 631V699H307V631H234Z"/>
<glyph unicode="Ģ" glyph-name="Gcommaaccent" horiz-adv-x="540" d="M73 177V537Q73 557 78 579T98 626T133 672T190 706T270 720Q324 720 364 701T426 652T456 593T466 536H411Q411 576 396 603T357 643T312 660T270 665T228 661T183 644T143 603T128 535V177Q128 137 143 109T182 69T228 51T270 46T312 51T357 68T396 109T411 177V328H259V382H466V176Q466 150 457 121T426 62T364 11T268 -9Q214 -9 174 11T113 61T83 121T73 177ZM185 -185L252 -43H302L246 -185H185Z"/>
<glyph unicode="ģ" glyph-name="gcommaaccent" horiz-adv-x="537" d="M73 177V350Q73 435 125 485T264 536Q306 536 343 520T398 475V527H453V-46Q453 -144 400 -185T264 -226Q187 -226 136 -185T81 -72H136Q140 -120 174 -146T264 -172Q292 -172 312 -168T353 -152T386 -114T398 -46V52Q353 -10 264 -10T124 40T73 177ZM128 177Q128 152 134 131T154 89T196 56T264 44Q328 44 363 79T398 177V350Q398 406 369 444T264 482Q199 482 164 448T128 350V177ZM213 594L285 741H349L261 594H213Z"/>
<glyph unicode="Ĥ" glyph-name="Hcircumflex" horiz-adv-x="574" d="M83 0V713H138V402H435V713H490V0H435V348H138V0H83ZM157 793L257 918H312L412 793H363L285 874L207 793H157Z"/>
<glyph unicode="ĥ" glyph-name="hcircumflex" horiz-adv-x="537" d="M82 0V712H137V464Q183 536 283 536Q370 536 416 487T463 350V0H408V350Q408 376 404 396T388 437T350 470T283 482Q221 482 179 446T137 352V0H82ZM140 793L240 918H295L395 793H346L268 874L190 793H140Z"/>
<glyph unicode="Ħ" glyph-name="Hbar" horiz-adv-x="578" d="M33 581V631H87V713H142V631H439V713H494V631H545V581H494V0H439V348H142V0H87V581H33ZM142 402H439V581H142V402Z"/>
<glyph unicode="ħ" glyph-name="hbar" horiz-adv-x="537" d="M13 581V631H82V712H137V631H300V581H137V464Q183 536 283 536Q370 536 416 487T463 350V0H408V350Q408 376 404 396T388 437T350 470T283 482Q221 482 179 446T137 352V0H82V581H13Z"/>
<glyph unicode="Ĩ" glyph-name="Itilde" horiz-adv-x="220" d="M-44 827Q5 875 46 875Q69 875 110 853T173 830Q201 830 232 861L264 830Q215 782 174 782Q150 782 110 804T47 827Q20 827 -12 796L-44 827ZM82 0V713H137V0H82Z"/>
<glyph unicode="ĩ" glyph-name="itilde" horiz-adv-x="221" d="M-44 661Q5 709 46 709Q69 709 110 687T173 664Q201 664 232 695L264 664Q215 616 174 616Q150 616 110 638T47 661Q20 661 -12 630L-44 661ZM83 0V527H137V0H83Z"/>
<glyph unicode="Ī" glyph-name="Imacron" horiz-adv-x="220" d="M-38 793V844H258V793H-38ZM82 0V713H137V0H82Z"/>
<glyph unicode="ī" glyph-name="imacron" horiz-adv-x="221" d="M-38 624V675H258V624H-38ZM83 0V527H137V0H83Z"/>
<glyph unicode="Ĭ" glyph-name="Ibreve" horiz-adv-x="220" d="M-51 906H0Q6 867 35 847T112 826Q209 826 223 906H271Q264 844 222 813T112 781Q41 781 -1 812T-51 906ZM82 0V713H137V0H82Z"/>
<glyph unicode="ĭ" glyph-name="ibreve" horiz-adv-x="221" d="M-50 730H1Q7 691 36 671T113 650Q210 650 224 730H272Q265 668 223 637T113 605Q42 605 0 636T-50 730ZM83 0V527H137V0H83Z"/>
<glyph unicode="Į" glyph-name="Iogonek" horiz-adv-x="220" d="M82 0V713H137V0H82ZM91 -43H149L237 -186H167L91 -43Z"/>
<glyph unicode="į" glyph-name="iogonek" horiz-adv-x="240" d="M83 632V721H155V632H83ZM93 0V527H148V0H93ZM102 -43H160L248 -186H178L102 -43Z"/>
<glyph unicode="İ" glyph-name="Idot" horiz-adv-x="220" d="M73 793V861H146V793H73ZM82 0V713H137V0H82Z"/>
<glyph unicode="ı" glyph-name="dotlessi" horiz-adv-x="221" d="M83 0V527H137V0H83Z"/>
<glyph unicode="Ĳ" glyph-name="IJ" horiz-adv-x="675" d="M82 0V713H137V0H82ZM244 173H299Q299 101 335 73T420 45Q470 45 505 72T541 169V659H321V713H596V175Q596 89 549 40T419 -9Q338 -9 291 41T244 173Z"/>
<glyph unicode="ĳ" glyph-name="ij" horiz-adv-x="479" d="M82 632V721H154V632H82ZM92 0V527H147V0H92ZM248 -172H261Q331 -172 331 -100V527H386V-95Q386 -161 353 -193T266 -226H248V-172ZM323 632V721H395V632H323Z"/>
<glyph unicode="Ĵ" glyph-name="Jcircumflex" horiz-adv-x="454" d="M23 173H78Q78 101 114 73T199 45Q249 45 284 72T320 169V659H100V713H375V175Q375 89 328 40T198 -9Q117 -9 70 41T23 173ZM102 793L202 918H257L357 793H308L230 874L152 793H102Z"/>
<glyph unicode="ĵ" glyph-name="jcircumflex" horiz-adv-x="239" d="M-8 594L92 719H147L247 594H198L120 675L42 594H-8ZM8 -172H21Q91 -172 91 -100V527H146V-95Q146 -161 113 -193T26 -226H8V-172Z"/>
<glyph unicode="Ķ" glyph-name="Kcommaaccent" horiz-adv-x="512" d="M83 0V713H138V336L404 713H467L244 397L483 0H419L212 350L138 239V0H83ZM437 -43H495L583 -186H513L437 -43Z"/>
<glyph unicode="ķ" glyph-name="kcommaaccent" horiz-adv-x="493" d="M83 0V712H138V242L396 527H468L268 309L469 0H404L232 269L138 166V0H83ZM407 -43H465L553 -186H483L407 -43Z"/>
<glyph unicode="Ĺ" glyph-name="Lacute" horiz-adv-x="475" d="M83 0V713H138V54H456V0H83ZM90 781L162 928H226L138 781H90Z"/>
<glyph unicode="ĺ" glyph-name="lacute" horiz-adv-x="247" d="M84 131V713H139V126Q139 54 209 54H222V0H204Q151 0 118 32T84 131ZM89 781L161 928H225L137 781H89Z"/>
<glyph unicode="Ļ" glyph-name="Lcommaaccent" horiz-adv-x="475" d="M83 0V713H138V54H456V0H83ZM177 -185L244 -43H294L238 -185H177Z"/>
<glyph unicode="ļ" glyph-name="lcommaaccent" horiz-adv-x="242" d="M79 131V713H134V126Q134 54 204 54H217V0H199Q146 0 113 32T79 131ZM85 -185L152 -43H202L146 -185H85Z"/>
<glyph unicode="Ľ" glyph-name="Lcaron" horiz-adv-x="475" d="M83 0V713H138V54H456V0H83ZM254 566L326 713H390L302 566H254Z"/>
<glyph unicode="ľ" glyph-name="lcaron" horiz-adv-x="271" d="M79 131V713H134V126Q134 54 204 54H217V0H199Q146 0 113 32T79 131ZM215 566L287 713H351L263 566H215Z"/>
<glyph unicode="Ŀ" glyph-name="Ldot" horiz-adv-x="475" d="M83 0V713H138V54H456V0H83ZM252 223V311H339V223H252Z"/>
<glyph unicode="ŀ" glyph-name="ldot" horiz-adv-x="411" d="M79 131V713H134V126Q134 54 204 54H217V0H199Q146 0 113 32T79 131ZM264 223V311H351V223H264Z"/>
<glyph unicode="Ł" glyph-name="Lslash" horiz-adv-x="475" d="M26 259V309H83V713H138V309H448V259H138V54H456V0H83V259H26Z"/>
<glyph unicode="ł" glyph-name="lslash" horiz-adv-x="236" d="M-36 259V309H78V713H133V309H251V259H133V126Q133 54 203 54H216V0H198Q145 0 112 32T78 131V259H-36Z"/>
<glyph unicode="Ń" glyph-name="Nacute" horiz-adv-x="565" d="M83 0V713H157L426 77V713H481V0H404L138 628V0H83ZM234 781L306 928H370L282 781H234Z"/>
<glyph unicode="ń" glyph-name="nacute" horiz-adv-x="543" d="M83 0V526H138V464Q186 536 284 536Q371 536 417 487T464 350V0H409V350Q409 376 405 396T389 437T351 470T284 482Q222 482 180 446T138 352V0H83ZM210 594L282 741H346L258 594H210Z"/>
<glyph unicode="Ņ" glyph-name="Ncommaaccent" horiz-adv-x="565" d="M83 0V713H157L426 77V713H481V0H404L138 628V0H83ZM418 -43H476L564 -186H494L418 -43Z"/>
<glyph unicode="ņ" glyph-name="ncommaaccent" horiz-adv-x="538" d="M83 0V526H138V464Q186 536 284 536Q371 536 417 487T464 350V0H409V350Q409 376 405 396T389 437T351 470T284 482Q222 482 180 446T138 352V0H83ZM414 -43H472L560 -186H490L414 -43Z"/>
<glyph unicode="Ň" glyph-name="Ncaron" horiz-adv-x="565" d="M83 0V713H157L426 77V713H481V0H404L138 628V0H83ZM154 918H203L281 837L359 918H409L309 793H254L154 918Z"/>
<glyph unicode="ň" glyph-name="ncaron" horiz-adv-x="543" d="M83 0V526H138V464Q186 536 284 536Q371 536 417 487T464 350V0H409V350Q409 376 405 396T389 437T351 470T284 482Q222 482 180 446T138 352V0H83ZM151 719H200L278 638L356 719H406L306 594H251L151 719Z"/>
<glyph unicode="ŉ" glyph-name="napostrophe" horiz-adv-x="671" d="M76 603L155 816H245L121 603H76ZM213 0V526H268V464Q316 536 414 536Q501 536 547 487T594 350V0H539V350Q539 376 535 396T519 437T481 470T414 482Q352 482 310 446T268 352V0H213Z"/>
<glyph unicode="Ŋ" glyph-name="Eng" horiz-adv-x="565" d="M83 0V713H157L426 77V713H481V-42Q481 -128 434 -177T304 -226Q222 -226 176 -176T129 -42V-38H184V-44Q184 -116 220 -144T305 -172Q355 -172 390 -145T426 -48V0H404L138 628V0H83Z"/>
<glyph unicode="ŋ" glyph-name="eng" horiz-adv-x="538" d="M83 0V526H138V464Q186 536 284 536Q371 536 417 487T464 350V-95Q464 -161 431 -193T344 -226H326V-172H339Q409 -172 409 -100V350Q409 376 405 396T389 437T351 470T284 482Q222 482 180 446T138 352V0H83Z"/>
<glyph unicode="Ō" glyph-name="Omacron" horiz-adv-x="540" d="M73 177V537Q73 557 78 579T98 626T133 672T190 706T270 720Q324 720 364 700T426 650T456 591T466 536V176Q466 150 457 121T427 62T365 11T269 -9Q215 -9 175 11T113 61T83 121T73 177ZM121 794V845H417V794H121ZM128 177Q128 137 143 109T182 68T228 50T270 45T312 50T357 68T396 109T411 177V535Q411 575 396 603T357 643T312 661T270 666T228 661T183 644T143 603T128 535V177Z"/>
<glyph unicode="ō" glyph-name="omacron" horiz-adv-x="534" d="M73 177V350Q73 434 126 485T267 536Q355 536 407 486T460 350V177Q460 92 407 41T267 -10Q178 -10 126 40T73 177ZM118 624V675H414V624H118ZM128 177Q128 122 159 83T267 44Q331 44 368 79T405 177V350Q405 405 374 443T267 482Q202 482 165 448T128 350V177Z"/>
<glyph unicode="Ŏ" glyph-name="Obreve" horiz-adv-x="540" d="M73 177V537Q73 557 78 579T98 626T133 672T190 706T270 720Q324 720 364 700T426 650T456 591T466 536V176Q466 150 457 121T427 62T365 11T269 -9Q215 -9 175 11T113 61T83 121T73 177ZM111 906H162Q168 867 197 847T274 826Q371 826 385 906H433Q426 844 384 813T274 781Q203 781 161 812T111 906ZM128 177Q128 137 143 109T182 68T228 50T270 45T312 50T357 68T396 109T411 177V535Q411 575 396 603T357 643T312 661T270 666T228 661T183 644T143 603T128 535V177Z"/>
<glyph unicode="ŏ" glyph-name="obreve" horiz-adv-x="534" d="M73 177V350Q73 434 126 485T267 536Q355 536 407 486T460 350V177Q460 92 407 41T267 -10Q178 -10 126 40T73 177ZM105 730H156Q162 691 191 671T268 650Q365 650 379 730H427Q420 668 378 637T268 605Q197 605 155 636T105 730ZM128 177Q128 122 159 83T267 44Q331 44 368 79T405 177V350Q405 405 374 443T267 482Q202 482 165 448T128 350V177Z"/>
<glyph unicode="Ő" glyph-name="Ohungarumlaut" horiz-adv-x="540" d="M73 177V537Q73 557 78 579T98 626T133 672T190 706T270 720Q324 720 364 700T426 650T456 591T466 536V176Q466 150 457 121T427 62T365 11T269 -9Q215 -9 175 11T113 61T83 121T73 177ZM110 793L195 939H271L168 793H110ZM128 177Q128 137 143 109T182 68T228 50T270 45T312 50T357 68T396 109T411 177V535Q411 575 396 603T357 643T312 661T270 666T228 661T183 644T143 603T128 535V177ZM273 793L358 939H434L330 793H273Z"/>
<glyph unicode="ő" glyph-name="ohungarumlaut" horiz-adv-x="534" d="M73 177V350Q73 434 126 485T267 536Q355 536 407 486T460 350V177Q460 92 407 41T267 -10Q178 -10 126 40T73 177ZM104 594L189 740H265L162 594H104ZM128 177Q128 122 159 83T267 44Q331 44 368 79T405 177V350Q405 405 374 443T267 482Q202 482 165 448T128 350V177ZM267 594L352 740H428L324 594H267Z"/>
<glyph unicode="Œ" glyph-name="OE" horiz-adv-x="839" d="M73 177V537Q73 557 78 579T98 626T133 672T190 706T270 720Q356 720 411 667V713H785V659H466V405H761V351H466V54H785V0H411V43Q357 -9 269 -9Q215 -9 175 11T113 61T83 121T73 177ZM128 177Q128 137 143 109T182 68T228 50T270 45Q299 45 326 52T381 89T411 168V535Q411 575 396 603T357 643T312 661T270 666T228 661T183 644T143 603T128 535V177Z"/>
<glyph unicode="œ" glyph-name="oe" horiz-adv-x="854" d="M73 177V350Q73 435 125 485T264 536Q378 536 427 455Q478 536 590 536Q678 536 729 486T780 350V250H454V168Q456 116 486 80T590 44Q650 44 685 75T724 162H779Q774 83 723 37T590 -10Q475 -10 426 70Q376 -10 264 -10Q175 -10 124 40T73 177ZM128 177Q128 152 134 131T154 89T196 56T264 44Q326 44 361 77T399 171V359Q396 411 366 446T264 482Q199 482 164 448T128 350V177ZM454 303H725V350Q725 405 695 443T590 482Q527 482 491 449T454 356V303Z"/>
<glyph unicode="Ŕ" glyph-name="Racute" horiz-adv-x="541" d="M83 0V713H289Q344 713 383 694T441 644T468 585T476 531V496Q476 472 470 448T450 395T407 345T337 315L487 0H424L279 311H138V0H83ZM138 365H289Q310 365 330 370T372 388T407 429T421 497V528Q421 568 408 596T371 636T328 654T287 659H138V365ZM202 781L274 928H338L250 781H202Z"/>
<glyph unicode="ŕ" glyph-name="racute" horiz-adv-x="315" d="M83 0V526H138V461Q171 526 248 526H280V472H247Q205 472 172 439T138 338V0H83ZM92 594L164 741H228L140 594H92Z"/>
<glyph unicode="Ŗ" glyph-name="Rcommaaccent" horiz-adv-x="541" d="M83 0V713H289Q344 713 383 694T441 644T468 585T476 531V496Q476 472 470 448T450 395T407 345T337 315L487 0H424L279 311H138V0H83ZM138 365H289Q310 365 330 370T372 388T407 429T421 497V528Q421 568 408 596T371 636T328 654T287 659H138V365ZM180 -185L247 -43H297L241 -185H180Z"/>
<glyph unicode="ŗ" glyph-name="rcommaaccent" horiz-adv-x="317" d="M15 -185L82 -43H132L76 -185H15ZM81 0V526H136V461Q169 526 246 526H278V472H245Q203 472 170 439T136 338V0H81Z"/>
<glyph unicode="Ř" glyph-name="Rcaron" horiz-adv-x="541" d="M83 0V713H289Q344 713 383 694T441 644T468 585T476 531V496Q476 472 470 448T450 395T407 345T337 315L487 0H424L279 311H138V0H83ZM129 918H178L256 837L334 918H384L284 793H229L129 918ZM138 365H289Q310 365 330 370T372 388T407 429T421 497V528Q421 568 408 596T371 636T328 654T287 659H138V365Z"/>
<glyph unicode="ř" glyph-name="rcaron" horiz-adv-x="317" d="M31 719H80L158 638L236 719H286L186 594H131L31 719ZM81 0V526H136V461Q169 526 246 526H278V472H245Q203 472 170 439T136 338V0H81Z"/>
<glyph unicode="Ś" glyph-name="Sacute" horiz-adv-x="521" d="M54 176H109Q109 115 150 80T255 44Q326 44 368 81T411 178Q411 259 333 303Q298 323 239 354T159 396Q117 419 92 458T66 547Q66 623 119 672T257 721Q344 721 399 670T455 538H400Q400 599 361 633T257 667Q198 667 160 635T121 544Q121 475 193 438Q309 379 358 352Q466 293 466 176Q466 96 405 43T256 -10Q165 -10 110 43T54 176ZM205 781L277 928H341L253 781H205Z"/>
<glyph unicode="ś" glyph-name="sacute" horiz-adv-x="494" d="M54 156H109Q109 103 145 75T245 46Q384 46 384 152Q384 207 313 228Q299 232 174 261Q126 272 94 306T62 387Q62 461 113 498T242 535Q327 535 379 492T432 373H377Q375 481 240 481Q117 481 117 387Q117 361 136 341T188 313Q326 282 331 280Q380 266 409 233T439 152Q439 70 385 31T245 -8T107 36T54 156ZM189 594L261 741H325L237 594H189Z"/>
<glyph unicode="Ŝ" glyph-name="Scircumflex" horiz-adv-x="521" d="M54 176H109Q109 115 150 80T255 44Q326 44 368 81T411 178Q411 259 333 303Q298 323 239 354T159 396Q117 419 92 458T66 547Q66 623 119 672T257 721Q344 721 399 670T455 538H400Q400 599 361 633T257 667Q198 667 160 635T121 544Q121 475 193 438Q309 379 358 352Q466 293 466 176Q466 96 405 43T256 -10Q165 -10 110 43T54 176ZM135 793L235 918H290L390 793H341L263 874L185 793H135Z"/>
<glyph unicode="ŝ" glyph-name="scircumflex" horiz-adv-x="494" d="M54 156H109Q109 103 145 75T245 46Q384 46 384 152Q384 207 313 228Q299 232 174 261Q126 272 94 306T62 387Q62 461 113 498T242 535Q327 535 379 492T432 373H377Q375 481 240 481Q117 481 117 387Q117 361 136 341T188 313Q326 282 331 280Q380 266 409 233T439 152Q439 70 385 31T245 -8T107 36T54 156ZM120 594L220 719H275L375 594H326L248 675L170 594H120Z"/>
<glyph unicode="Ş" glyph-name="Scedilla" horiz-adv-x="521" d="M54 176H109Q109 115 150 80T255 44Q326 44 368 81T411 178Q411 259 333 303Q298 323 239 354T159 396Q117 419 92 458T66 547Q66 623 119 672T257 721Q344 721 399 670T455 538H400Q400 599 361 633T257 667Q198 667 160 635T121 544Q121 475 193 438Q309 379 358 352Q466 293 466 176Q466 96 405 43T256 -10Q165 -10 110 43T54 176ZM172 -185L239 -43H289L233 -185H172Z"/>
<glyph unicode="ş" glyph-name="scedilla" horiz-adv-x="494" d="M54 156H109Q109 103 145 75T245 46Q384 46 384 152Q384 207 313 228Q299 232 174 261Q126 272 94 306T62 387Q62 461 113 498T242 535Q327 535 379 492T432 373H377Q375 481 240 481Q117 481 117 387Q117 361 136 341T188 313Q326 282 331 280Q380 266 409 233T439 152Q439 70 385 31T245 -8T107 36T54 156ZM166 -185L233 -43H283L227 -185H166Z"/>
<glyph unicode="Š" glyph-name="Scaron" horiz-adv-x="521" d="M54 176H109Q109 115 150 80T255 44Q326 44 368 81T411 178Q411 259 333 303Q298 323 239 354T159 396Q117 419 92 458T66 547Q66 623 119 672T257 721Q344 721 399 670T455 538H400Q400 599 361 633T257 667Q198 667 160 635T121 544Q121 475 193 438Q309 379 358 352Q466 293 466 176Q466 96 405 43T256 -10Q165 -10 110 43T54 176ZM134 918H183L261 837L339 918H389L289 793H234L134 918Z"/>
<glyph unicode="š" glyph-name="scaron" horiz-adv-x="494" d="M54 156H109Q109 103 145 75T245 46Q384 46 384 152Q384 207 313 228Q299 232 174 261Q126 272 94 306T62 387Q62 461 113 498T242 535Q327 535 379 492T432 373H377Q375 481 240 481Q117 481 117 387Q117 361 136 341T188 313Q326 282 331 280Q380 266 409 233T439 152Q439 70 385 31T245 -8T107 36T54 156ZM120 719H169L247 638L325 719H375L275 594H220L120 719Z"/>
<glyph unicode="Ţ" glyph-name="Tcommaaccent" horiz-adv-x="474" d="M29 658V713H444V658H264V0H209V658H29ZM141 -185L208 -43H258L202 -185H141Z"/>
<glyph unicode="ţ" glyph-name="tcommaaccent" horiz-adv-x="356" d="M24 472V526H129V712H184V526H304V472H184V126Q184 54 254 54H306V0H249Q196 0 163 32T129 131V472H24ZM126 -185L193 -43H243L187 -185H126Z"/>
<glyph unicode="Ť" glyph-name="Tcaron" horiz-adv-x="474" d="M29 658V713H444V658H264V0H209V658H29ZM111 918H160L238 837L316 918H366L266 793H211L111 918Z"/>
<glyph unicode="ť" glyph-name="tcaron" horiz-adv-x="372" d="M24 472V526H129V712H184V526H304V472H184V126Q184 54 254 54H306V0H249Q196 0 163 32T129 131V472H24ZM316 566L388 713H452L364 566H316Z"/>
<glyph unicode="Ŧ" glyph-name="Tbar" horiz-adv-x="484" d="M29 658V713H444V658H264V309H382V259H264V0H209V259H95V309H209V658H29Z"/>
<glyph unicode="ŧ" glyph-name="tbar" horiz-adv-x="331" d="M4 259V309H110V472H5V526H110V712H165V526H285V472H165V309H291V259H165V126Q165 54 235 54H287V0H230Q177 0 144 32T110 131V259H4Z"/>
<glyph unicode="Ũ" glyph-name="Utilde" horiz-adv-x="540" d="M73 177V713H128V177Q128 137 143 109T182 68T228 50T270 45T312 50T357 68T396 109T411 177V713H466V176Q466 148 457 119T428 60T367 10T271 -9Q215 -9 174 10T113 60T83 120T73 177ZM115 826Q164 874 205 874Q228 874 269 852T332 829Q360 829 391 860L423 829Q374 781 333 781Q310 781 270 803T206 826Q179 826 147 795L115 826Z"/>
<glyph unicode="ũ" glyph-name="utilde" horiz-adv-x="545" d="M78 177V527H133V177Q133 122 163 84T269 45Q330 45 368 79T406 171V527H461V0H406V53Q360 -9 269 -9Q180 -9 129 41T78 177ZM123 660Q172 708 213 708Q236 708 277 686T340 663Q368 663 399 694L431 663Q382 615 341 615Q318 615 278 637T214 660Q187 660 155 629L123 660Z"/>
<glyph unicode="Ū" glyph-name="Umacron" horiz-adv-x="540" d="M73 177V713H128V177Q128 137 143 109T182 68T228 50T270 45T312 50T357 68T396 109T411 177V713H466V176Q466 148 457 119T428 60T367 10T271 -9Q215 -9 174 10T113 60T83 120T73 177ZM121 781V832H417V781H121Z"/>
<glyph unicode="ū" glyph-name="umacron" horiz-adv-x="545" d="M78 177V527H133V177Q133 122 163 84T269 45Q330 45 368 79T406 171V527H461V0H406V53Q360 -9 269 -9Q180 -9 129 41T78 177ZM129 624V675H425V624H129Z"/>
<glyph unicode="Ŭ" glyph-name="Ubreve" horiz-adv-x="540" d="M73 177V713H128V177Q128 137 143 109T182 68T228 50T270 45T312 50T357 68T396 109T411 177V713H466V176Q466 148 457 119T428 60T367 10T271 -9Q215 -9 174 10T113 60T83 120T73 177ZM108 906H159Q165 867 194 847T271 826Q368 826 382 906H430Q423 844 381 813T271 781Q200 781 158 812T108 906Z"/>
<glyph unicode="ŭ" glyph-name="ubreve" horiz-adv-x="545" d="M78 177V527H133V177Q133 122 163 84T269 45Q330 45 368 79T406 171V527H461V0H406V53Q360 -9 269 -9Q180 -9 129 41T78 177ZM116 731H167Q173 692 202 672T279 651Q376 651 390 731H438Q431 669 389 638T279 606Q208 606 166 637T116 731Z"/>
<glyph unicode="Ů" glyph-name="Uring" horiz-adv-x="540" d="M73 177V713H128V177Q128 137 143 109T182 68T228 50T270 45T312 50T357 68T396 109T411 177V713H466V176Q466 148 457 119T428 60T367 10T271 -9Q215 -9 174 10T113 60T83 120T73 177ZM172 817T172 858T201 928T271 958Q313 958 342 929T372 858Q372 817 343 788T271 758Q231 758 202 787ZM214 858Q214 835 231 818T271 801Q295 801 312 818T330 858Q330 882 313 899T271 916Q248 916 231 899T214 858Z"/>
<glyph unicode="ů" glyph-name="uring" horiz-adv-x="545" d="M78 177V527H133V177Q133 122 163 84T269 45Q330 45 368 79T406 171V527H461V0H406V53Q360 -9 269 -9Q180 -9 129 41T78 177ZM172 644T172 685T201 755T271 785Q313 785 342 756T372 685Q372 644 343 615T271 585Q231 585 202 614ZM214 685Q214 662 231 645T271 628Q295 628 312 645T330 685Q330 709 313 726T271 743Q248 743 231 726T214 685Z"/>
<glyph unicode="Ű" glyph-name="Uhungarumlaut" horiz-adv-x="540" d="M73 177V713H128V177Q128 137 143 109T182 68T228 50T270 45T312 50T357 68T396 109T411 177V713H466V176Q466 148 457 119T428 60T367 10T271 -9Q215 -9 174 10T113 60T83 120T73 177ZM113 793L198 939H274L171 793H113ZM276 793L361 939H437L333 793H276Z"/>
<glyph unicode="ű" glyph-name="uhungarumlaut" horiz-adv-x="545" d="M78 177V527H133V177Q133 122 163 84T269 45Q330 45 368 79T406 171V527H461V0H406V53Q360 -9 269 -9Q180 -9 129 41T78 177ZM115 594L200 740H276L173 594H115ZM278 594L363 740H439L335 594H278Z"/>
<glyph unicode="Ų" glyph-name="Uogonek" horiz-adv-x="540" d="M73 177V713H128V177Q128 137 143 109T182 68T228 50T270 45T312 50T357 68T396 109T411 177V713H466V176Q466 148 457 119T428 60T367 10T271 -9Q215 -9 174 10T113 60T83 120T73 177ZM249 -43H307L395 -186H325L249 -43Z"/>
<glyph unicode="ų" glyph-name="uogonek" horiz-adv-x="545" d="M78 177V527H133V177Q133 122 163 84T269 45Q330 45 368 79T406 171V527H461V0H406V53Q360 -9 269 -9Q180 -9 129 41T78 177ZM411 -43H469L557 -186H487L411 -43Z"/>
<glyph unicode="Ŵ" glyph-name="Wcircumflex" horiz-adv-x="796" d="M29 713H85L215 52L369 712H426L579 52L710 713H766L617 0H541L398 612L253 0H177L29 713ZM270 793L370 918H425L525 793H476L398 874L320 793H270Z"/>
<glyph unicode="ŵ" glyph-name="wcircumflex" horiz-adv-x="721" d="M54 527H110L216 53L332 527H388L505 53L610 527H666L543 0H470L360 450L250 0H178L54 527ZM235 594L335 719H390L490 594H441L363 675L285 594H235Z"/>
<glyph unicode="Ŷ" glyph-name="Ycircumflex" horiz-adv-x="491" d="M29 713H89L245 325L401 713H461L272 257V0H217V258L29 713ZM119 793L219 918H274L374 793H325L247 874L169 793H119Z"/>
<glyph unicode="ŷ" glyph-name="ycircumflex" horiz-adv-x="445" d="M24 527H81L211 51H239L363 527H420L252 -103Q231 -179 196 -202T94 -226H69V-172H107Q145 -172 165 -159T197 -106L227 0H172L24 527ZM98 594L198 719H253L353 594H304L226 675L148 594H98Z"/>
<glyph unicode="Ÿ" glyph-name="Ydieresis" horiz-adv-x="491" d="M29 713H89L245 325L401 713H461L272 257V0H217V258L29 713ZM103 793V883H175V793H103ZM318 793V883H390V793H318Z"/>
<glyph unicode="Ź" glyph-name="Zacute" horiz-adv-x="445" d="M28 0V56L341 659H42V713H399V660L86 54H416V0H28ZM164 781L236 928H300L212 781H164Z"/>
<glyph unicode="ź" glyph-name="zacute" horiz-adv-x="450" d="M44 0V55L325 472H54V526H383V471L102 54H405V0H44ZM166 594L238 741H302L214 594H166Z"/>
<glyph unicode="Ż" glyph-name="Zdotaccent" horiz-adv-x="445" d="M28 0V56L341 659H42V713H399V660L86 54H416V0H28ZM185 793V861H258V793H185Z"/>
<glyph unicode="ż" glyph-name="zdotaccent" horiz-adv-x="450" d="M44 0V55L325 472H54V526H383V471L102 54H405V0H44ZM188 631V699H261V631H188Z"/>
<glyph unicode="Ž" glyph-name="Zcaron" horiz-adv-x="445" d="M28 0V56L341 659H42V713H399V660L86 54H416V0H28ZM99 918H148L226 837L304 918H354L254 793H199L99 918Z"/>
<glyph unicode="ž" glyph-name="zcaron" horiz-adv-x="450" d="M44 0V55L325 472H54V526H383V471L102 54H405V0H44ZM102 719H151L229 638L307 719H357L257 594H202L102 719Z"/>
<glyph unicode="ſ" glyph-name="longs" horiz-adv-x="327" d="M23 472V526H118V569Q118 637 152 675T254 713H291V659H244Q216 659 195 641T173 581V0H118V472H23Z"/>
<glyph unicode="ƒ" glyph-name="florin" horiz-adv-x="327" d="M23 472V526H118V569Q118 637 152 675T254 713H291V659H244Q216 659 195 641T173 581V526H303V472H173V-95Q173 -161 140 -193T53 -226H35V-172H48Q118 -172 118 -100V472H23Z"/>
<glyph unicode="Ș" glyph-name="Scommaaccent" horiz-adv-x="521" d="M54 176H109Q109 115 150 80T255 44Q326 44 368 81T411 178Q411 259 333 303Q298 323 239 354T159 396Q117 419 92 458T66 547Q66 623 119 672T257 721Q344 721 399 670T455 538H400Q400 599 361 633T257 667Q198 667 160 635T121 544Q121 475 193 438Q309 379 358 352Q466 293 466 176Q466 96 405 43T256 -10Q165 -10 110 43T54 176ZM170 -185L237 -43H287L231 -185H170Z"/>
<glyph unicode="ș" glyph-name="scommaaccent" horiz-adv-x="494" d="M54 156H109Q109 103 145 75T245 46Q384 46 384 152Q384 207 313 228Q299 232 174 261Q126 272 94 306T62 387Q62 461 113 498T242 535Q327 535 379 492T432 373H377Q375 481 240 481Q117 481 117 387Q117 361 136 341T188 313Q326 282 331 280Q380 266 409 233T439 152Q439 70 385 31T245 -8T107 36T54 156ZM162 -185L229 -43H279L223 -185H162Z"/>
<glyph unicode="ˆ" glyph-name="circumflex" horiz-adv-x="422" d="M83 605L183 730H238L338 605H289L211 686L133 605H83Z"/>
<glyph unicode="ˇ" glyph-name="caron" horiz-adv-x="422" d="M83 731H132L210 650L288 731H338L238 606H183L83 731Z"/>
<glyph unicode="˘" glyph-name="breve" horiz-adv-x="489" d="M83 721H134Q140 682 169 662T246 641Q343 641 357 721H405Q398 659 356 628T246 596Q175 596 133 627T83 721Z"/>
<glyph unicode="˙" glyph-name="dotaccent" horiz-adv-x="240" d="M83 634V702H156V634H83Z"/>
<glyph unicode="˚" glyph-name="ring" horiz-adv-x="367" d="M83 644T83 685T112 755T182 785Q224 785 253 756T283 685Q283 644 254 615T182 585Q142 585 113 614ZM125 685Q125 662 142 645T182 628Q206 628 223 645T241 685Q241 709 224 726T182 743Q159 743 142 726T125 685Z"/>
<glyph unicode="˛" glyph-name="ogonek" horiz-adv-x="293" d="M83 -43H141L229 -186H159L83 -43Z"/>
<glyph unicode="˜" glyph-name="tilde" horiz-adv-x="475" d="M83 653Q132 701 173 701Q196 701 237 679T300 656Q328 656 359 687L391 656Q342 608 301 608Q278 608 238 630T174 653Q147 653 115 622L83 653Z"/>
<glyph unicode="˝" glyph-name="hungarumlaut" horiz-adv-x="491" d="M83 595L168 741H244L141 595H83ZM246 595L331 741H407L303 595H246Z"/>
<glyph unicode="π" glyph-name="pi" horiz-adv-x="645" d="M79 482V532H565V482H464V0H409V482H238V0H183V482H79Z"/>
<glyph unicode="–" glyph-name="endash" horiz-adv-x="587" d="M83 259V309H503V259H83Z"/>
<glyph unicode="—" glyph-name="emdash" horiz-adv-x="846" d="M83 259V309H759V259H83Z"/>
<glyph unicode="‘" glyph-name="quoteleft" horiz-adv-x="227" d="M33 603L157 816H202L123 603H33Z"/>
<glyph unicode="’" glyph-name="quoteright" horiz-adv-x="227" d="M33 603L112 816H202L78 603H33Z"/>
<glyph unicode="‚" glyph-name="quotesinglbase" horiz-adv-x="229" d="M33 -126L112 87H202L78 -126H33Z"/>
<glyph unicode="“" glyph-name="quotedblleft" horiz-adv-x="370" d="M33 603L157 816H202L123 603H33ZM167 603L291 816H336L257 603H167Z"/>
<glyph unicode="”" glyph-name="quotedblright" horiz-adv-x="370" d="M33 603L112 816H202L78 603H33ZM167 603L246 816H336L212 603H167Z"/>
<glyph unicode="„" glyph-name="quotedblbase" horiz-adv-x="370" d="M33 -126L112 87H202L78 -126H33ZM167 -126L246 87H336L212 -126H167Z"/>
<glyph unicode="†" glyph-name="dagger" horiz-adv-x="446" d="M79 486V536H197V770H247V536H366V486H247V-58H197V486H79Z"/>
<glyph unicode="‡" glyph-name="daggerdbl" horiz-adv-x="446" d="M79 176V226H197V487H79V537H197V770H247V537H366V487H247V226H366V176H247V-58H197V176H79Z"/>
<glyph unicode="•" glyph-name="bullet" horiz-adv-x="374" d="M83 311T83 354T113 427T186 458T259 428T290 354T260 281T186 250T113 280Z"/>
<glyph unicode="…" glyph-name="ellipsis" horiz-adv-x="675" d="M79 0V87H155V0H79ZM299 0V87H374V0H299ZM519 0V87H595V0H519Z"/>
<glyph unicode="‰" glyph-name="perthousand" horiz-adv-x="1071" d="M86 472V573Q86 626 118 657T205 688T292 657T324 573V472Q324 418 292 386T205 354T118 386T86 472ZM136 472Q136 444 151 424T205 404Q238 404 256 422T274 472V573Q274 638 205 638Q173 638 155 621T136 573V472ZM232 -54L503 771H559L290 -54H232ZM455 107V208Q455 261 487 292T574 323T661 292T693 208V107Q693 53 661 21T574 -11T487 21T455 107ZM505 107Q505 79 520 59T574 39Q607 39 625 57T643 107V208Q643 273 574 273Q542 273 524 256T505 208V107ZM749 107V208Q749 261 781 292T868 323T955 292T987 208V107Q987 53 955 21T868 -11T781 21T749 107ZM799 107Q799 79 814 59T868 39Q901 39 919 57T937 107V208Q937 273 868 273Q836 273 818 256T799 208V107Z"/>
<glyph unicode="‹" glyph-name="guilsinglleft" horiz-adv-x="288" d="M33 265L214 446V374L105 265L214 155V84L33 265Z"/>
<glyph unicode="›" glyph-name="guilsinglright" horiz-adv-x="287" d="M73 84V155L183 265L73 374V446L253 265L73 84Z"/>
<glyph unicode="⁄" glyph-name="fraction" horiz-adv-x="556" d="M83 0L417 713H472L139 0H83Z"/>
<glyph unicode="€" glyph-name="Euro" horiz-adv-x="548" d="M49 261V311H133V409H49V459H133V537Q133 557 137 579T153 627T185 673T240 706T319 720T397 707T450 673T482 627T499 579T503 536H448Q448 576 435 603T401 643T360 661T319 666T279 661T237 643T202 602T188 534V459H383V409H188V311H383V261H188V178Q188 138 201 110T237 68T278 50T319 45T359 50T400 68T435 108T448 176H503Q503 149 495 121T468 61T410 11T315 -9Q271 -9 238 4T185 38T153 85T137 134T133 177V261H49Z"/>
<glyph unicode="™" glyph-name="trademark" horiz-adv-x="706" d="M83 667V712H322V667H225V331H180V667H83ZM362 331V712H433L493 495L551 712H622V331H578V656L510 433H474L406 655V331H362Z"/>
<glyph unicode="Ω" glyph-name="uni2126" horiz-adv-x="540" d="M33 0V47H124Q73 101 73 177V537Q73 557 78 579T98 626T133 672T190 706T270 720Q324 720 364 700T426 650T456 591T466 536V176Q466 102 414 47H506V0H296V47Q343 54 377 84T411 177V535Q411 575 396 603T357 643T312 661T270 666T228 661T183 644T143 603T128 535V177Q128 113 162 84T243 47V0H33Z"/>
<glyph unicode="∂" glyph-name="partialdiff" horiz-adv-x="538" d="M73 174V259Q73 285 82 314T111 374T172 425T266 445Q359 445 409 383V533Q409 566 399 590T375 629T340 652T303 663T269 666V720Q324 720 364 701T425 650T455 590T464 535V172Q464 146 455 118T425 60T365 11T270 -9Q226 -9 190 4T133 38T98 84T79 132T73 174ZM128 177Q128 137 143 109T182 68T228 50T270 45T311 50T356 68T394 109T409 177V258Q409 290 399 315T374 354T339 377T303 388T270 391Q249 391 228 386T183 368T143 327T128 258V177Z"/>
<glyph unicode="∆" glyph-name="uni2206" horiz-adv-x="542" d="M28 0L232 713H308L513 0H28ZM95 53H444L270 664L95 53Z"/>
<glyph unicode="∏" glyph-name="product" horiz-adv-x="566" d="M79 0V713H486V0H431V659H134V0H79Z"/>
<glyph unicode="∑" glyph-name="summation" horiz-adv-x="567" d="M73 0V50L389 361L73 663V713H493V663H145L433 389V333L144 50H493V0H73Z"/>
<glyph unicode="−" glyph-name="minus" horiz-adv-x="567" d="M98 259V309H468V259H98Z"/>
<glyph unicode="√" glyph-name="radical" horiz-adv-x="615" d="M79 301H136L268 -175H292L538 714H595L333 -226H227L79 301Z"/>
<glyph unicode="∞" glyph-name="infinity" horiz-adv-x="871" d="M79 198T79 282T128 419T253 473Q347 473 404 380L435 329L466 380Q523 473 617 473Q693 473 742 420T791 282T742 145T617 91Q523 91 466 184L435 234L404 184Q347 91 253 91Q177 91 128 144ZM132 341T132 282T165 184T256 145T362 218L405 282L362 346Q314 419 256 419T165 380ZM465 282L508 218Q556 145 614 145T705 184T738 282T705 380T614 419T508 346L465 282Z"/>
<glyph unicode="∫" glyph-name="integral'" horiz-adv-x="295" d="M19 -172H32Q102 -172 102 -100V569Q102 637 136 675T238 713H275V659H228Q200 659 179 641T157 581V-95Q157 -161 124 -193T37 -226H19V-172Z"/>
<glyph unicode="≈" glyph-name="approxequal" horiz-adv-x="536" d="M83 223Q117 257 139 268T191 280Q219 280 269 256T346 232Q365 232 379 239T418 270L452 243Q417 209 395 198T344 186Q319 186 267 210T188 234Q169 234 155 227T116 196L83 223ZM83 360Q117 394 139 405T191 417Q219 417 269 393T346 369Q365 369 379 376T418 407L452 380Q417 346 395 335T344 323Q319 323 267 347T188 371Q169 371 155 364T116 333L83 360Z"/>
<glyph unicode="≠" glyph-name="notequal" horiz-adv-x="556" d="M83 -68L206 195H91V245H229L275 343H91V393H299L417 645H472L354 393H468V343H331L285 245H468V195H261L139 -68H83Z"/>
<glyph unicode="≤" glyph-name="lessequal" horiz-adv-x="487" d="M46 386L307 648H382L123 386L385 121H310L46 386ZM60 0V50H430V0H60Z"/>
<glyph unicode="≥" glyph-name="greaterequal" horiz-adv-x="488" d="M56 0V50H426V0H56ZM101 121L363 386L104 648H179L441 386L176 121H101Z"/>
<glyph unicode="◊" glyph-name="lozenge" horiz-adv-x="542" d="M73 356L232 713H308L468 356L308 0H232L73 356ZM129 356L270 39L409 356L270 674L129 356Z"/>
<glyph unicode="ﬁ" glyph-name="uniFB01" horiz-adv-x="558" d="M23 472V526H118V569Q118 637 152 675T254 713H291V659H244Q216 659 195 641T173 581V526H466V0H411V472H173V0H118V472H23ZM402 631V720H474V631H402Z"/>
<glyph unicode="ﬂ" glyph-name="uniFB02" horiz-adv-x="559" d="M23 472V526H118V569Q118 637 152 675T254 713H291V659H244Q216 659 195 641T173 581V526H401V713H456V126Q456 54 526 54H539V0H521Q468 0 435 32T401 131V472H173V0H118V472H23Z"/>
</font>
</defs>
</svg>
